<svg xmlns="http://www.w3.org/2000/svg" xmlns:xlink="http://www.w3.org/1999/xlink" width="300" zoomAndPan="magnify" viewBox="0 0 224.87999 74.999997" height="100" preserveAspectRatio="xMidYMid meet" version="1.0"><defs><g/><clipPath id="b86844f362"><path d="M 186.484375 29.109375 L 206.453125 29.109375 L 206.453125 61.875 L 186.484375 61.875 Z M 186.484375 29.109375 " clip-rule="nonzero"/></clipPath><clipPath id="7e3ec0c35d"><path d="M 190.230469 29.109375 L 202.707031 29.109375 C 204.777344 29.109375 206.453125 30.789062 206.453125 32.859375 L 206.453125 58.050781 C 206.453125 60.121094 204.777344 61.800781 202.707031 61.800781 L 190.230469 61.800781 C 188.160156 61.800781 186.484375 60.121094 186.484375 58.050781 L 186.484375 32.859375 C 186.484375 30.789062 188.160156 29.109375 190.230469 29.109375 Z M 190.230469 29.109375 " clip-rule="nonzero"/></clipPath><clipPath id="508041c172"><path d="M 186.484375 29.109375 L 206.722656 29.109375 L 206.722656 62 L 186.484375 62 Z M 186.484375 29.109375 " clip-rule="nonzero"/></clipPath><clipPath id="b4f1a39412"><path d="M 190.230469 29.109375 L 202.707031 29.109375 C 204.773438 29.109375 206.453125 30.789062 206.453125 32.859375 L 206.453125 58.050781 C 206.453125 60.121094 204.773438 61.796875 202.707031 61.796875 L 190.230469 61.796875 C 188.160156 61.796875 186.484375 60.121094 186.484375 58.050781 L 186.484375 32.859375 C 186.484375 30.789062 188.160156 29.109375 190.230469 29.109375 Z M 190.230469 29.109375 " clip-rule="nonzero"/></clipPath><clipPath id="2c6434ee71"><path d="M 56.207031 17.65625 L 61.207031 17.65625 L 61.207031 22.65625 L 56.207031 22.65625 Z M 56.207031 17.65625 " clip-rule="nonzero"/></clipPath><clipPath id="1d6aa66b92"><path d="M 58.707031 17.65625 C 57.328125 17.65625 56.207031 18.777344 56.207031 20.15625 C 56.207031 21.539062 57.328125 22.65625 58.707031 22.65625 C 60.089844 22.65625 61.207031 21.539062 61.207031 20.15625 C 61.207031 18.777344 60.089844 17.65625 58.707031 17.65625 Z M 58.707031 17.65625 " clip-rule="nonzero"/></clipPath><clipPath id="e4de775ea1"><path d="M 56.207031 17.65625 L 61.195312 17.65625 L 61.195312 22.648438 L 56.207031 22.648438 Z M 56.207031 17.65625 " clip-rule="nonzero"/></clipPath><clipPath id="41ee79a635"><path d="M 58.703125 17.65625 C 57.324219 17.65625 56.207031 18.773438 56.207031 20.152344 C 56.207031 21.53125 57.324219 22.648438 58.703125 22.648438 C 60.078125 22.648438 61.195312 21.53125 61.195312 20.152344 C 61.195312 18.773438 60.078125 17.65625 58.703125 17.65625 Z M 58.703125 17.65625 " clip-rule="nonzero"/></clipPath><clipPath id="65157e3832"><path d="M 188.445312 13 L 204.28125 13 L 204.28125 26.714844 L 188.445312 26.714844 Z M 188.445312 13 " clip-rule="nonzero"/></clipPath><clipPath id="108f611c3a"><path d="M 198.6875 14.34375 L 203.878906 22.875 C 204.351562 23.65625 204.367188 24.628906 203.921875 25.425781 C 203.472656 26.222656 202.632812 26.714844 201.71875 26.714844 L 190.980469 26.714844 C 190.066406 26.714844 189.226562 26.222656 188.777344 25.425781 C 188.328125 24.628906 188.347656 23.65625 188.820312 22.875 L 194.011719 14.34375 C 194.507812 13.527344 195.394531 13.03125 196.347656 13.03125 C 197.304688 13.03125 198.191406 13.527344 198.6875 14.34375 Z M 198.6875 14.34375 " clip-rule="nonzero"/></clipPath><clipPath id="ed5b7527d8"><path d="M 188.21875 13 L 204.429688 13 L 204.429688 26.710938 L 188.21875 26.710938 Z M 188.21875 13 " clip-rule="nonzero"/></clipPath><clipPath id="a6039d8a31"><path d="M 198.683594 14.34375 L 203.871094 22.871094 C 204.34375 23.652344 204.363281 24.625 203.914062 25.421875 C 203.464844 26.21875 202.625 26.710938 201.710938 26.710938 L 190.980469 26.710938 C 190.066406 26.710938 189.222656 26.21875 188.777344 25.421875 C 188.328125 24.625 188.34375 23.652344 188.820312 22.871094 L 194.007812 14.34375 C 194.503906 13.527344 195.390625 13.03125 196.34375 13.03125 C 197.300781 13.03125 198.1875 13.527344 198.683594 14.34375 Z M 198.683594 14.34375 " clip-rule="nonzero"/></clipPath><clipPath id="d5034743ab"><path d="M 69.699219 29.652344 L 74.699219 29.652344 L 74.699219 34.652344 L 69.699219 34.652344 Z M 69.699219 29.652344 " clip-rule="nonzero"/></clipPath><clipPath id="8209d67679"><path d="M 72.199219 29.652344 C 70.820312 29.652344 69.699219 30.769531 69.699219 32.152344 C 69.699219 33.53125 70.820312 34.652344 72.199219 34.652344 C 73.582031 34.652344 74.699219 33.53125 74.699219 32.152344 C 74.699219 30.769531 73.582031 29.652344 72.199219 29.652344 Z M 72.199219 29.652344 " clip-rule="nonzero"/></clipPath><clipPath id="40057367c8"><path d="M 69.699219 29.652344 L 74.691406 29.652344 L 74.691406 34.640625 L 69.699219 34.640625 Z M 69.699219 29.652344 " clip-rule="nonzero"/></clipPath><clipPath id="849d31e502"><path d="M 72.195312 29.652344 C 70.816406 29.652344 69.699219 30.769531 69.699219 32.144531 C 69.699219 33.523438 70.816406 34.640625 72.195312 34.640625 C 73.574219 34.640625 74.691406 33.523438 74.691406 32.144531 C 74.691406 30.769531 73.574219 29.652344 72.195312 29.652344 Z M 72.195312 29.652344 " clip-rule="nonzero"/></clipPath><clipPath id="2af57ef412"><path d="M 67.199219 17.65625 L 72.199219 17.65625 L 72.199219 22.65625 L 67.199219 22.65625 Z M 67.199219 17.65625 " clip-rule="nonzero"/></clipPath><clipPath id="c18f8a0db1"><path d="M 69.699219 17.65625 C 68.320312 17.65625 67.199219 18.777344 67.199219 20.15625 C 67.199219 21.539062 68.320312 22.65625 69.699219 22.65625 C 71.082031 22.65625 72.199219 21.539062 72.199219 20.15625 C 72.199219 18.777344 71.082031 17.65625 69.699219 17.65625 Z M 69.699219 17.65625 " clip-rule="nonzero"/></clipPath><clipPath id="d155ff656c"><path d="M 67.199219 17.65625 L 72.191406 17.65625 L 72.191406 22.648438 L 67.199219 22.648438 Z M 67.199219 17.65625 " clip-rule="nonzero"/></clipPath><clipPath id="957da17ae6"><path d="M 69.695312 17.65625 C 68.316406 17.65625 67.199219 18.773438 67.199219 20.152344 C 67.199219 21.53125 68.316406 22.648438 69.695312 22.648438 C 71.074219 22.648438 72.191406 21.53125 72.191406 20.152344 C 72.191406 18.773438 71.074219 17.65625 69.695312 17.65625 Z M 69.695312 17.65625 " clip-rule="nonzero"/></clipPath></defs><g clip-path="url(#b86844f362)"><g clip-path="url(#7e3ec0c35d)"><path fill="#e4dac5" d="M 186.484375 29.109375 L 206.453125 29.109375 L 206.453125 61.796875 L 186.484375 61.796875 Z M 186.484375 29.109375 " fill-opacity="1" fill-rule="nonzero"/></g></g><g clip-path="url(#508041c172)"><g clip-path="url(#b4f1a39412)"><path stroke-linecap="butt" transform="matrix(0.7496, 0, 0, 0.7496, 186.483306, 29.110095)" fill="none" stroke-linejoin="miter" d="M 4.998884 -0.000960437 L 21.643179 -0.000960437 C 24.399858 -0.000960437 26.640636 2.239818 26.640636 5.001708 L 26.640636 38.608176 C 26.640636 41.370066 24.399858 43.605634 21.643179 43.605634 L 4.998884 43.605634 C 2.236994 43.605634 0.00142624 41.370066 0.00142624 38.608176 L 0.00142624 5.001708 C 0.00142624 2.239818 2.236994 -0.000960437 4.998884 -0.000960437 Z M 4.998884 -0.000960437 " stroke="#333333" stroke-width="2" stroke-opacity="1" stroke-miterlimit="4"/></g></g><g fill="#333333" fill-opacity="1"><g transform="translate(13.14666, 59.916423)"><g><path d="M 12.75 -16.28125 C 12.75 -14.53125 13.328125 -13.164062 14.484375 -12.1875 C 15.640625 -11.207031 16.867188 -10.710938 18.171875 -10.703125 C 19.472656 -10.703125 20.691406 -11.082031 21.828125 -11.84375 C 22.960938 -12.613281 23.882812 -12.992188 24.59375 -12.984375 C 25.832031 -12.984375 27.335938 -11.882812 29.109375 -9.6875 C 30.054688 -8.488281 30.53125 -7.414062 30.53125 -6.46875 C 30.519531 -4.894531 29.378906 -3.429688 27.109375 -2.078125 C 24.734375 -0.429688 21.832031 0.382812 18.40625 0.375 C 14.5625 0.363281 10.867188 -1.03125 7.328125 -3.8125 C 5.628906 -5.144531 4.25 -6.914062 3.1875 -9.125 C 2.125 -11.34375 1.597656 -13.785156 1.609375 -16.453125 C 1.617188 -19.117188 2.160156 -21.535156 3.234375 -23.703125 C 4.316406 -25.867188 5.710938 -27.609375 7.421875 -28.921875 C 10.859375 -31.628906 14.519531 -32.976562 18.40625 -32.96875 C 19.976562 -32.957031 21.503906 -32.734375 22.984375 -32.296875 C 24.472656 -31.859375 25.566406 -31.429688 26.265625 -31.015625 L 27.265625 -30.40625 C 28.003906 -29.894531 28.582031 -29.492188 29 -29.203125 C 30.070312 -28.378906 30.601562 -27.441406 30.59375 -26.390625 C 30.59375 -25.335938 30.148438 -24.148438 29.265625 -22.828125 C 27.785156 -20.566406 26.363281 -19.4375 25 -19.4375 C 24.207031 -19.4375 23.09375 -19.894531 21.65625 -20.8125 C 20.90625 -21.507812 19.835938 -21.859375 18.453125 -21.859375 C 17.066406 -21.867188 15.769531 -21.378906 14.5625 -20.390625 C 13.363281 -19.410156 12.757812 -18.039062 12.75 -16.28125 Z M 12.75 -16.28125 "/></g></g></g><g fill="#333333" fill-opacity="1"><g transform="translate(45.193022, 60.032821)"><g><path d="M 16.984375 -0.0625 C 12.804688 -0.0820312 9.347656 -1.675781 6.609375 -4.84375 C 3.878906 -8.007812 2.523438 -11.863281 2.546875 -16.40625 L 2.578125 -27.25 C 2.585938 -28.25 2.625 -28.972656 2.6875 -29.421875 C 2.75 -29.878906 2.921875 -30.414062 3.203125 -31.03125 C 3.796875 -32.15625 5.414062 -32.710938 8.0625 -32.703125 C 10.945312 -32.691406 12.632812 -31.898438 13.125 -30.328125 C 13.375 -29.660156 13.492188 -28.609375 13.484375 -27.171875 L 13.453125 -16.3125 C 13.441406 -14.625 13.921875 -13.300781 14.890625 -12.34375 C 15.859375 -11.382812 17.160156 -10.898438 18.796875 -10.890625 C 20.429688 -10.890625 21.753906 -11.382812 22.765625 -12.375 C 23.773438 -13.363281 24.285156 -14.660156 24.296875 -16.265625 L 24.328125 -27.234375 C 24.335938 -28.191406 24.375 -28.90625 24.4375 -29.375 C 24.5 -29.851562 24.695312 -30.398438 25.03125 -31.015625 C 25.570312 -32.097656 27.164062 -32.632812 29.8125 -32.625 C 32.414062 -32.613281 34.003906 -32.046875 34.578125 -30.921875 C 34.859375 -30.304688 35.03125 -29.757812 35.09375 -29.28125 C 35.15625 -28.8125 35.179688 -28.097656 35.171875 -27.140625 L 35.09375 -5.203125 C 35.09375 -4.296875 35.0625 -3.601562 35 -3.125 C 34.9375 -2.65625 34.738281 -2.128906 34.40625 -1.546875 C 33.78125 -0.472656 32.1875 0.0546875 29.625 0.046875 C 27.101562 0.0351562 25.554688 -0.460938 24.984375 -1.453125 C 24.578125 -2.160156 24.375 -3.007812 24.375 -4 C 24.207031 -3.707031 23.832031 -3.296875 23.25 -2.765625 C 22.664062 -2.234375 22.109375 -1.78125 21.578125 -1.40625 C 20.171875 -0.5 18.640625 -0.0507812 16.984375 -0.0625 Z M 16.984375 -0.0625 "/></g></g></g><g fill="#333333" fill-opacity="1"><g transform="translate(82.756073, 60.169257)"><g><path d="M 2.75 -2.890625 C 1.957031 -3.398438 1.5625 -4.191406 1.5625 -5.265625 C 1.570312 -6.335938 2.363281 -7.96875 3.9375 -10.15625 C 4.40625 -10.851562 5.144531 -11.195312 6.15625 -11.1875 C 7.164062 -11.1875 8.535156 -10.675781 10.265625 -9.65625 C 11.992188 -8.644531 13.5625 -8.140625 14.96875 -8.140625 C 17.488281 -8.128906 18.75 -8.617188 18.75 -9.609375 C 18.757812 -10.390625 17.378906 -10.972656 14.609375 -11.359375 C 12.003906 -11.742188 9.421875 -12.71875 6.859375 -14.28125 C 5.671875 -15.039062 4.6875 -16.210938 3.90625 -17.796875 C 3.132812 -19.390625 2.75 -21.28125 2.75 -23.46875 C 2.78125 -30 7.273438 -33.25 16.234375 -33.21875 C 19.171875 -33.207031 22.1875 -32.492188 25.28125 -31.078125 C 26.71875 -30.421875 27.429688 -29.597656 27.421875 -28.609375 C 27.421875 -27.617188 26.960938 -26.398438 26.046875 -24.953125 C 25.140625 -23.503906 24.210938 -22.785156 23.265625 -22.796875 C 22.765625 -22.796875 21.84375 -23.109375 20.5 -23.734375 C 19.164062 -24.359375 17.710938 -24.671875 16.140625 -24.671875 C 13.703125 -24.679688 12.476562 -24.234375 12.46875 -23.328125 C 12.46875 -22.085938 13.875 -21.273438 16.6875 -20.890625 C 19.414062 -20.585938 22.054688 -19.789062 24.609375 -18.5 C 25.804688 -17.925781 26.804688 -16.921875 27.609375 -15.484375 C 28.410156 -14.054688 28.804688 -12.265625 28.796875 -10.109375 C 28.796875 -7.960938 28.390625 -6.140625 27.578125 -4.640625 C 26.765625 -3.140625 25.628906 -2.015625 24.171875 -1.265625 C 21.523438 0.00390625 18.207031 0.628906 14.21875 0.609375 C 10.238281 0.597656 6.414062 -0.566406 2.75 -2.890625 Z M 2.75 -2.890625 "/></g></g></g><g fill="#333333" fill-opacity="1"><g transform="translate(113.066853, 60.279351)"><g><path d="M 20.703125 -32.46875 C 24.835938 -32.457031 28.269531 -30.875 31 -27.71875 C 33.726562 -24.570312 35.085938 -20.722656 35.078125 -16.171875 L 35.03125 -5.265625 C 35.03125 -4.316406 35 -3.601562 34.9375 -3.125 C 34.875 -2.65625 34.675781 -2.109375 34.34375 -1.484375 C 33.800781 -0.410156 32.207031 0.117188 29.5625 0.109375 C 27.039062 0.0976562 25.472656 -0.441406 24.859375 -1.515625 C 24.535156 -2.140625 24.34375 -2.695312 24.28125 -3.1875 C 24.21875 -3.6875 24.1875 -4.429688 24.1875 -5.421875 L 24.234375 -16.265625 C 24.234375 -17.960938 23.757812 -19.285156 22.8125 -20.234375 C 21.875 -21.191406 20.671875 -21.671875 19.203125 -21.671875 C 17.734375 -21.679688 16.4375 -21.242188 15.3125 -20.359375 C 14.195312 -19.484375 13.554688 -18.488281 13.390625 -17.375 L 13.34375 -5.34375 C 13.34375 -4.394531 13.3125 -3.679688 13.25 -3.203125 C 13.1875 -2.734375 12.984375 -2.1875 12.640625 -1.5625 C 12.109375 -0.488281 10.519531 0.0390625 7.875 0.03125 C 5.269531 0.0195312 3.675781 -0.539062 3.09375 -1.65625 C 2.820312 -2.28125 2.65625 -2.816406 2.59375 -3.265625 C 2.53125 -3.722656 2.5 -4.445312 2.5 -5.4375 L 2.640625 -42.5 C 2.640625 -43.457031 2.671875 -44.171875 2.734375 -44.640625 C 2.804688 -45.117188 2.984375 -45.644531 3.265625 -46.21875 C 3.847656 -47.332031 5.460938 -47.882812 8.109375 -47.875 C 10.710938 -47.863281 12.28125 -47.300781 12.8125 -46.1875 C 13.144531 -45.570312 13.335938 -45.023438 13.390625 -44.546875 C 13.453125 -44.078125 13.484375 -43.363281 13.484375 -42.40625 L 13.4375 -28.71875 C 15.507812 -31.226562 17.929688 -32.476562 20.703125 -32.46875 Z M 20.703125 -32.46875 "/></g></g></g><g fill="#333333" fill-opacity="1"><g transform="translate(150.567929, 60.415561)"><g><path d="M 21.75 -16.28125 L 29.96875 -9.4375 C 31 -8.570312 31.648438 -7.90625 31.921875 -7.4375 C 32.191406 -6.976562 32.320312 -6.546875 32.3125 -6.140625 C 32.3125 -5.140625 31.671875 -3.800781 30.390625 -2.125 C 28.972656 -0.382812 27.726562 0.476562 26.65625 0.46875 C 25.75 0.46875 24.488281 -0.132812 22.875 -1.34375 L 22.25 -1.78125 C 21.3125 -2.5625 19.851562 -3.9375 17.875 -5.90625 C 15.894531 -7.882812 14.390625 -9.289062 13.359375 -10.125 L 13.34375 -5.34375 C 13.34375 -4.394531 13.3125 -3.679688 13.25 -3.203125 C 13.1875 -2.734375 12.984375 -2.1875 12.640625 -1.5625 C 12.109375 -0.488281 10.519531 0.0390625 7.875 0.03125 C 5.269531 0.0195312 3.675781 -0.539062 3.09375 -1.65625 C 2.820312 -2.28125 2.65625 -2.828125 2.59375 -3.296875 C 2.53125 -3.773438 2.5 -4.488281 2.5 -5.4375 L 2.640625 -42.5625 C 2.640625 -43.519531 2.671875 -44.234375 2.734375 -44.703125 C 2.804688 -45.179688 2.984375 -45.726562 3.265625 -46.34375 C 3.847656 -47.457031 5.460938 -48.007812 8.109375 -48 C 10.085938 -47.988281 11.492188 -47.632812 12.328125 -46.9375 C 13.023438 -46.351562 13.390625 -45.441406 13.421875 -44.203125 C 13.460938 -43.835938 13.484375 -43.257812 13.484375 -42.46875 L 13.40625 -22.828125 C 14.15625 -23.441406 15.285156 -24.488281 16.796875 -25.96875 C 18.316406 -27.457031 19.445312 -28.503906 20.1875 -29.109375 L 20.9375 -29.609375 C 22.382812 -30.722656 23.625 -31.273438 24.65625 -31.265625 C 25.6875 -31.265625 26.867188 -30.425781 28.203125 -28.75 C 29.546875 -27.070312 30.210938 -25.753906 30.203125 -24.796875 C 30.203125 -23.847656 29.4375 -22.742188 27.90625 -21.484375 Z M 21.75 -16.28125 "/></g></g></g><path stroke-linecap="round" transform="matrix(-0.620879, -0.420012, 0.420012, -0.620879, 203.403444, 35.635103)" fill="none" stroke-linejoin="miter" d="M 0.759804 0.785743 C 2.536725 2.584732 4.581498 2.528989 6.881175 0.627274 " stroke="#f1ebdf" stroke-width="1" stroke-opacity="1" stroke-miterlimit="4"/><path stroke-linecap="round" transform="matrix(-0.436046, -0.609725, 0.609725, -0.436046, 201.274493, 24.367922)" fill="none" stroke-linejoin="miter" d="M 0.559252 0.500724 C 2.057344 0.502189 3.420953 0.503577 4.653111 0.500649 " stroke="#f1ebdf" stroke-width="1" stroke-opacity="1" stroke-miterlimit="4"/><path stroke-linecap="round" transform="matrix(-0.436046, -0.609725, 0.609725, -0.436046, 198.191426, 20.943447)" fill="none" stroke-linejoin="miter" d="M 0.555627 0.499831 C 1.864107 0.506639 3.058707 0.502478 4.137603 0.498856 " stroke="#f1ebdf" stroke-width="1" stroke-opacity="1" stroke-miterlimit="4"/><path stroke-linecap="round" transform="matrix(-0.58495, 0.468757, -0.468757, -0.58495, 193.897931, 32.49325)" fill="none" stroke-linejoin="miter" d="M 0.787374 0.766348 C 2.748064 2.544588 4.743618 2.521017 6.773228 0.688308 " stroke="#f1ebdf" stroke-width="1" stroke-opacity="1" stroke-miterlimit="4"/><g clip-path="url(#2c6434ee71)"><g clip-path="url(#1d6aa66b92)"><path fill="#333333" d="M 56.207031 17.65625 L 61.207031 17.65625 L 61.207031 22.65625 L 56.207031 22.65625 Z M 56.207031 17.65625 " fill-opacity="1" fill-rule="nonzero"/></g></g><g clip-path="url(#e4de775ea1)"><g clip-path="url(#41ee79a635)"><path stroke-linecap="butt" transform="matrix(0.7496, 0, 0, 0.7496, 56.207378, 17.657458)" fill="none" stroke-linejoin="miter" d="M 3.329439 -0.0016114 C 1.489916 -0.0016114 -0.000462435 1.488767 -0.000462435 3.32829 C -0.000462435 5.167813 1.489916 6.658191 3.329439 6.658191 C 5.163751 6.658191 6.654129 5.167813 6.654129 3.32829 C 6.654129 1.488767 5.163751 -0.0016114 3.329439 -0.0016114 Z M 3.329439 -0.0016114 " stroke="#333333" stroke-width="8" stroke-opacity="1" stroke-miterlimit="4"/></g></g><g clip-path="url(#65157e3832)"><g clip-path="url(#108f611c3a)"><path fill="#8ea898" d="M 186.484375 10.503906 L 206.246094 10.503906 L 206.246094 26.714844 L 186.484375 26.714844 Z M 186.484375 10.503906 " fill-opacity="1" fill-rule="nonzero"/></g></g><g clip-path="url(#ed5b7527d8)"><g clip-path="url(#a6039d8a31)"><path stroke-linecap="butt" transform="matrix(0.7496, 0, 0, 0.7496, 186.483306, 10.503118)" fill="none" stroke-linejoin="miter" d="M 16.275733 5.123577 L 23.196092 16.499437 C 23.826637 17.54166 23.852692 18.839227 23.253414 19.902294 C 22.654136 20.965361 21.533747 21.621962 20.314346 21.621962 L 5.999418 21.621962 C 4.780017 21.621962 3.654417 20.965361 3.06035 19.902294 C 2.461072 18.839227 2.481916 17.54166 3.117672 16.499437 L 10.038031 5.123577 C 10.699842 4.034454 11.882765 3.372642 13.154276 3.372642 C 14.430999 3.372642 15.613922 4.034454 16.275733 5.123577 Z M 16.275733 5.123577 " stroke="#333333" stroke-width="2" stroke-opacity="1" stroke-miterlimit="4"/></g></g><path stroke-linecap="round" transform="matrix(-0.399137, -0.6345, 0.6345, -0.399137, 198.035754, 18.549121)" fill="none" stroke-linejoin="miter" d="M 0.593102 0.501438 C 1.9492 0.498758 3.30971 0.498853 4.663034 0.500585 " stroke="#f1ebdf" stroke-width="1" stroke-opacity="1" stroke-miterlimit="4"/><path stroke-linecap="round" transform="matrix(-0.406333, -0.629915, 0.629915, -0.406333, 201.259355, 23.537586)" fill="none" stroke-linejoin="miter" d="M 0.598273 0.501297 C 2.39206 0.498767 4.190227 0.499062 5.981189 0.500911 " stroke="#f1ebdf" stroke-width="1" stroke-opacity="1" stroke-miterlimit="4"/><g clip-path="url(#d5034743ab)"><g clip-path="url(#8209d67679)"><path fill="#333333" d="M 69.699219 29.652344 L 74.699219 29.652344 L 74.699219 34.652344 L 69.699219 34.652344 Z M 69.699219 29.652344 " fill-opacity="1" fill-rule="nonzero"/></g></g><g clip-path="url(#40057367c8)"><g clip-path="url(#849d31e502)"><path stroke-linecap="butt" transform="matrix(0.7496, 0, 0, 0.7496, 69.700182, 29.651057)" fill="none" stroke-linejoin="miter" d="M 3.328617 0.00171676 C 1.489094 0.00171676 -0.00128439 1.492095 -0.00128439 3.326407 C -0.00128439 5.16593 1.489094 6.656308 3.328617 6.656308 C 5.16814 6.656308 6.658518 5.16593 6.658518 3.326407 C 6.658518 1.492095 5.16814 0.00171676 3.328617 0.00171676 Z M 3.328617 0.00171676 " stroke="#333333" stroke-width="8" stroke-opacity="1" stroke-miterlimit="4"/></g></g><g clip-path="url(#2af57ef412)"><g clip-path="url(#c18f8a0db1)"><path fill="#333333" d="M 67.199219 17.65625 L 72.199219 17.65625 L 72.199219 22.65625 L 67.199219 22.65625 Z M 67.199219 17.65625 " fill-opacity="1" fill-rule="nonzero"/></g></g><g clip-path="url(#d155ff656c)"><g clip-path="url(#957da17ae6)"><path stroke-linecap="butt" transform="matrix(0.7496, 0, 0, 0.7496, 67.200039, 17.657458)" fill="none" stroke-linejoin="miter" d="M 3.328807 -0.0016114 C 1.489284 -0.0016114 -0.00109433 1.488767 -0.00109433 3.32829 C -0.00109433 5.167813 1.489284 6.658191 3.328807 6.658191 C 5.16833 6.658191 6.658708 5.167813 6.658708 3.32829 C 6.658708 1.488767 5.16833 -0.0016114 3.328807 -0.0016114 Z M 3.328807 -0.0016114 " stroke="#333333" stroke-width="8" stroke-opacity="1" stroke-miterlimit="4"/></g></g></svg>