<svg xmlns="http://www.w3.org/2000/svg" xmlns:xlink="http://www.w3.org/1999/xlink" width="160" zoomAndPan="magnify" viewBox="0 0 120 44.999999" height="60" preserveAspectRatio="xMidYMid meet" version="1.0"><defs><g/><clipPath id="0aa9df67d7"><path d="M 97 18 L 111 18 L 111 37 L 97 37 Z M 97 18 " clip-rule="nonzero"/></clipPath><clipPath id="3b908e470d"><path d="M 102.714844 17.660156 L 111.105469 20.570312 L 105.363281 37.121094 L 96.972656 34.207031 Z M 102.714844 17.660156 " clip-rule="nonzero"/></clipPath><clipPath id="2adb06ad90"><path d="M 104.839844 18.394531 L 108.980469 19.832031 C 109.542969 20.027344 110.007812 20.4375 110.265625 20.976562 C 110.527344 21.511719 110.5625 22.132812 110.367188 22.695312 L 106.113281 34.960938 C 105.917969 35.527344 105.503906 35.988281 104.96875 36.25 C 104.429688 36.507812 103.8125 36.546875 103.25 36.351562 L 99.109375 34.914062 C 98.546875 34.71875 98.085938 34.308594 97.824219 33.769531 C 97.5625 33.234375 97.527344 32.613281 97.722656 32.050781 L 101.976562 19.785156 C 102.175781 19.222656 102.585938 18.757812 103.121094 18.496094 C 103.660156 18.238281 104.277344 18.199219 104.839844 18.394531 Z M 104.839844 18.394531 " clip-rule="nonzero"/></clipPath><clipPath id="4ba2dac293"><path d="M 97 18 L 111 18 L 111 37 L 97 37 Z M 97 18 " clip-rule="nonzero"/></clipPath><clipPath id="4691a06522"><path d="M 102.714844 17.660156 L 111.21875 20.609375 L 105.566406 36.90625 L 97.0625 33.957031 Z M 102.714844 17.660156 " clip-rule="nonzero"/></clipPath><clipPath id="6f4e798e9f"><path d="M 102.714844 17.664062 L 111.144531 20.585938 L 105.296875 37.449219 L 96.863281 34.523438 Z M 102.714844 17.664062 " clip-rule="nonzero"/></clipPath><clipPath id="5a1136a5bb"><path d="M 104.839844 18.398438 L 108.972656 19.832031 C 109.535156 20.027344 110 20.441406 110.257812 20.976562 C 110.519531 21.511719 110.554688 22.128906 110.359375 22.691406 L 106.109375 34.949219 C 105.914062 35.511719 105.5 35.972656 104.964844 36.234375 C 104.429688 36.492188 103.8125 36.53125 103.246094 36.335938 L 99.113281 34.898438 C 98.550781 34.703125 98.089844 34.292969 97.828125 33.757812 C 97.566406 33.21875 97.53125 32.601562 97.726562 32.039062 L 101.976562 19.785156 C 102.171875 19.222656 102.585938 18.761719 103.121094 18.5 C 103.65625 18.238281 104.273438 18.203125 104.839844 18.398438 Z M 104.839844 18.398438 " clip-rule="nonzero"/></clipPath><clipPath id="fdf1e1d093"><path d="M 104 11 L 112 11 L 112 19 L 104 19 Z M 104 11 " clip-rule="nonzero"/></clipPath><clipPath id="26b48793b6"><path d="M 106.339844 10.003906 L 113.566406 12.507812 L 111.300781 19.046875 L 104.074219 16.542969 Z M 106.339844 10.003906 " clip-rule="nonzero"/></clipPath><clipPath id="04fd572ddd"><path d="M 110.515625 11.929688 L 111.613281 17.777344 C 111.671875 18.082031 111.5625 18.394531 111.328125 18.597656 C 111.09375 18.796875 110.765625 18.859375 110.472656 18.757812 L 104.917969 16.832031 C 104.625 16.730469 104.40625 16.480469 104.347656 16.175781 C 104.289062 15.875 104.398438 15.558594 104.628906 15.355469 L 109.109375 11.441406 C 109.34375 11.238281 109.664062 11.175781 109.957031 11.277344 C 110.246094 11.378906 110.460938 11.625 110.515625 11.929688 Z M 110.515625 11.929688 " clip-rule="nonzero"/></clipPath><clipPath id="b59638f8d3"><path d="M 104 11 L 112 11 L 112 19 L 104 19 Z M 104 11 " clip-rule="nonzero"/></clipPath><clipPath id="884fccae52"><path d="M 106.042969 9 L 114.546875 11.949219 L 112.09375 19.035156 L 103.589844 16.085938 Z M 106.042969 9 " clip-rule="nonzero"/></clipPath><clipPath id="31dba6d213"><path d="M 106.296875 9.972656 L 113.628906 12.511719 L 111.359375 19.0625 L 104.027344 16.519531 Z M 106.296875 9.972656 " clip-rule="nonzero"/></clipPath><clipPath id="1754562d52"><path d="M 110.511719 11.929688 L 111.609375 17.769531 C 111.664062 18.074219 111.554688 18.386719 111.320312 18.589844 C 111.085938 18.792969 110.761719 18.855469 110.46875 18.753906 L 104.917969 16.828125 C 104.625 16.726562 104.410156 16.476562 104.347656 16.171875 C 104.289062 15.871094 104.398438 15.558594 104.628906 15.351562 L 109.105469 11.441406 C 109.335938 11.242188 109.660156 11.175781 109.949219 11.277344 C 110.242188 11.378906 110.453125 11.628906 110.511719 11.929688 Z M 110.511719 11.929688 " clip-rule="nonzero"/></clipPath></defs><path stroke-linecap="round" transform="matrix(0.588378, -0.465092, 0.465092, 0.588378, 17.016949, 30.761823)" fill="none" stroke-linejoin="miter" d="M 0.670239 0.635847 C 1.750759 0.965477 2.639976 0.991193 3.325633 0.703304 " stroke="#f1ebdf" stroke-width="1" stroke-opacity="1" stroke-miterlimit="4"/><path stroke-linecap="round" transform="matrix(-0.749426, -0.0293415, 0.0293415, -0.749426, 35.233212, 13.976734)" fill="none" stroke-linejoin="miter" d="M 0.669065 0.620362 C 1.07306 0.687942 1.541858 0.680013 2.080258 0.585961 " stroke="#f1ebdf" stroke-width="1" stroke-opacity="1" stroke-miterlimit="4"/><path stroke-linecap="round" transform="matrix(-0.389451, -0.640959, 0.640959, -0.389451, 36.103003, 28.75721)" fill="none" stroke-linejoin="miter" d="M 0.738967 0.647868 C 1.145652 0.760897 1.524392 0.759435 1.865327 0.649681 " stroke="#f1ebdf" stroke-width="1" stroke-opacity="1" stroke-miterlimit="4"/><path stroke-linecap="round" transform="matrix(-0.469701, -0.584706, 0.584706, -0.469701, 19.361327, 29.105341)" fill="none" stroke-linejoin="miter" d="M 0.703755 0.662207 C 1.34012 0.926221 1.863927 0.939478 2.283297 0.708503 " stroke="#f1ebdf" stroke-width="1" stroke-opacity="1" stroke-miterlimit="4"/><path stroke-linecap="round" transform="matrix(-0.43572, -0.610449, 0.610449, -0.43572, 57.196298, 14.636258)" fill="none" stroke-linejoin="miter" d="M 0.638621 0.60139 C 0.950451 0.65759 1.220487 0.664763 1.451755 0.61867 " stroke="#f1ebdf" stroke-width="1" stroke-opacity="1" stroke-miterlimit="4"/><path stroke-linecap="round" transform="matrix(-0.66605, -0.344786, 0.344786, -0.66605, 67.267183, 8.678212)" fill="none" stroke-linejoin="miter" d="M 0.797815 0.675642 C 1.155657 0.777777 1.530366 0.753885 1.91748 0.618005 " stroke="#f1ebdf" stroke-width="1" stroke-opacity="1" stroke-miterlimit="4"/><path stroke-linecap="round" transform="matrix(0.187899, -0.726081, 0.726081, 0.187899, 56.753362, 16.269949)" fill="none" stroke-linejoin="miter" d="M 0.681631 0.615201 C 1.036005 0.695651 1.390974 0.695249 1.731414 0.617908 " stroke="#f1ebdf" stroke-width="1" stroke-opacity="1" stroke-miterlimit="4"/><path stroke-linecap="round" transform="matrix(-0.152524, -0.734327, 0.734327, -0.152524, 67.544433, 10.234532)" fill="none" stroke-linejoin="miter" d="M 0.715035 0.630597 C 1.209686 0.733339 1.592541 0.759666 1.876977 0.696396 " stroke="#f1ebdf" stroke-width="1" stroke-opacity="1" stroke-miterlimit="4"/><g clip-path="url(#0aa9df67d7)"><g clip-path="url(#3b908e470d)"><g clip-path="url(#2adb06ad90)"><path fill="#c79a99" d="M 102.714844 17.660156 L 111.105469 20.570312 L 105.375 37.085938 L 96.984375 34.175781 Z M 102.714844 17.660156 " fill-opacity="1" fill-rule="nonzero"/></g></g></g><g clip-path="url(#4ba2dac293)"><g clip-path="url(#4691a06522)"><g clip-path="url(#6f4e798e9f)"><g clip-path="url(#5a1136a5bb)"><path stroke-linecap="butt" transform="matrix(0.70857, 0.245821, -0.245821, 0.70857, 102.714868, 17.662131)" fill="none" stroke-linejoin="miter" d="M 2.998568 -0.0011338 L 8.831096 -0.0013628 C 9.625021 -0.00115212 10.391527 0.317291 10.95016 0.878749 C 11.513713 1.438501 11.827719 2.200596 11.827508 2.994521 L 11.830708 20.292769 C 11.830497 21.086694 11.510347 21.84828 10.950596 22.411833 C 10.389138 22.970466 9.628749 23.289392 8.829903 23.290888 L 2.995669 23.286197 C 2.201744 23.285986 1.441865 22.970756 0.878312 22.411005 C 0.313051 21.846333 -0.000954301 21.084238 -0.000743623 20.290313 L -0.00223651 2.996986 C -0.00202584 2.203061 0.318124 1.441475 0.877876 0.877922 C 1.437627 0.314368 2.199723 0.000362609 2.998568 -0.0011338 Z M 2.998568 -0.0011338 " stroke="#333333" stroke-width="2" stroke-opacity="1" stroke-miterlimit="4"/></g></g></g></g><g clip-path="url(#fdf1e1d093)"><g clip-path="url(#26b48793b6)"><g clip-path="url(#04fd572ddd)"><path fill="#c79a99" d="M 106.042969 9 L 114.449219 11.914062 L 111.902344 19.253906 L 103.5 16.34375 Z M 106.042969 9 " fill-opacity="1" fill-rule="nonzero"/></g></g></g><g clip-path="url(#b59638f8d3)"><g clip-path="url(#884fccae52)"><g clip-path="url(#31dba6d213)"><g clip-path="url(#1754562d52)"><path stroke-linecap="butt" transform="matrix(0.70866, 0.245562, -0.245562, 0.70866, 106.043651, 9.004289)" fill="none" stroke-linejoin="miter" d="M 6.906148 1.734982 L 10.838429 8.613067 C 11.040339 8.97305 11.038967 9.414499 10.832367 9.772721 C 10.625767 10.130944 10.244588 10.351223 9.831156 10.351167 L 1.997349 10.348207 C 1.583918 10.348152 1.20411 10.126982 0.992357 9.770409 C 0.787231 9.417052 0.788603 8.975604 0.988577 8.614166 L 4.921336 1.73373 C 5.12472 1.382134 5.504194 1.156933 5.912704 1.158694 C 6.326135 1.15875 6.701022 1.381625 6.906148 1.734982 Z M 6.906148 1.734982 " stroke="#333333" stroke-width="2" stroke-opacity="1" stroke-miterlimit="4"/></g></g></g></g><g fill="#333333" fill-opacity="1"><g transform="translate(11.739345, 34.043984)"><g><path d="M 7.828125 -14.1875 C 7.285156 -14.0625 6.796875 -13.859375 6.359375 -13.578125 C 5.921875 -13.304688 5.554688 -12.960938 5.265625 -12.546875 C 4.984375 -12.128906 4.789062 -11.648438 4.6875 -11.109375 C 4.582031 -10.566406 4.609375 -9.957031 4.765625 -9.28125 C 5.066406 -7.957031 5.675781 -7.050781 6.59375 -6.5625 C 7.507812 -6.070312 8.515625 -5.945312 9.609375 -6.1875 C 10.253906 -6.332031 10.789062 -6.535156 11.21875 -6.796875 C 11.65625 -7.054688 12.035156 -7.316406 12.359375 -7.578125 C 12.859375 -7.359375 13.253906 -7.097656 13.546875 -6.796875 C 13.847656 -6.492188 14.054688 -6.09375 14.171875 -5.59375 C 14.367188 -4.707031 14.101562 -3.929688 13.375 -3.265625 C 12.644531 -2.597656 11.539062 -2.097656 10.0625 -1.765625 C 8.707031 -1.460938 7.4375 -1.382812 6.25 -1.53125 C 5.070312 -1.675781 4.007812 -2.019531 3.0625 -2.5625 C 2.113281 -3.101562 1.3125 -3.832031 0.65625 -4.75 C 0 -5.664062 -0.46875 -6.738281 -0.75 -7.96875 C -1.0625 -9.382812 -1.109375 -10.671875 -0.890625 -11.828125 C -0.679688 -12.992188 -0.253906 -14.007812 0.390625 -14.875 C 1.035156 -15.75 1.835938 -16.472656 2.796875 -17.046875 C 3.765625 -17.628906 4.828125 -18.050781 5.984375 -18.3125 C 7.535156 -18.664062 8.789062 -18.65625 9.75 -18.28125 C 10.71875 -17.914062 11.300781 -17.289062 11.5 -16.40625 C 11.59375 -16 11.582031 -15.597656 11.46875 -15.203125 C 11.351562 -14.804688 11.191406 -14.445312 10.984375 -14.125 C 10.578125 -14.21875 10.097656 -14.285156 9.546875 -14.328125 C 9.003906 -14.367188 8.429688 -14.320312 7.828125 -14.1875 Z M 7.828125 -14.1875 "/></g></g></g><g fill="#333333" fill-opacity="1"><g transform="translate(26.576366, 30.559642)"><g><path d="M -0.109375 -15.90625 C 0.109375 -15.988281 0.445312 -16.085938 0.90625 -16.203125 C 1.375 -16.328125 1.851562 -16.421875 2.34375 -16.484375 C 2.832031 -16.535156 3.269531 -16.550781 3.65625 -16.53125 C 4.050781 -16.507812 4.390625 -16.414062 4.671875 -16.25 C 4.960938 -16.09375 5.195312 -15.851562 5.375 -15.53125 C 5.550781 -15.207031 5.671875 -14.769531 5.734375 -14.21875 L 6.546875 -7.171875 C 6.648438 -6.273438 6.941406 -5.65625 7.421875 -5.3125 C 7.910156 -4.976562 8.570312 -4.863281 9.40625 -4.96875 C 9.914062 -5.019531 10.320312 -5.109375 10.625 -5.234375 C 10.925781 -5.359375 11.160156 -5.476562 11.328125 -5.59375 L 10 -17.0625 C 10.21875 -17.144531 10.554688 -17.25 11.015625 -17.375 C 11.472656 -17.5 11.953125 -17.585938 12.453125 -17.640625 C 12.941406 -17.703125 13.378906 -17.71875 13.765625 -17.6875 C 14.160156 -17.664062 14.5 -17.570312 14.78125 -17.40625 C 15.0625 -17.25 15.289062 -17.007812 15.46875 -16.6875 C 15.65625 -16.363281 15.78125 -15.925781 15.84375 -15.375 L 17 -5.421875 C 17.125 -4.316406 16.753906 -3.441406 15.890625 -2.796875 C 15.179688 -2.222656 14.3125 -1.75 13.28125 -1.375 C 12.25 -1 11.113281 -0.738281 9.875 -0.59375 C 8.695312 -0.457031 7.59375 -0.460938 6.5625 -0.609375 C 5.53125 -0.765625 4.625 -1.070312 3.84375 -1.53125 C 3.0625 -2 2.421875 -2.640625 1.921875 -3.453125 C 1.429688 -4.273438 1.113281 -5.300781 0.96875 -6.53125 Z M -0.109375 -15.90625 "/></g></g></g><g fill="#333333" fill-opacity="1"><g transform="translate(44.758993, 28.496944)"><g><path d="M 15.21875 -4.890625 C 15.226562 -3.222656 14.609375 -1.910156 13.359375 -0.953125 C 12.109375 0.00390625 10.265625 0.492188 7.828125 0.515625 C 6.898438 0.515625 6.039062 0.453125 5.25 0.328125 C 4.457031 0.203125 3.78125 0.00390625 3.21875 -0.265625 C 2.65625 -0.535156 2.210938 -0.878906 1.890625 -1.296875 C 1.566406 -1.722656 1.40625 -2.21875 1.40625 -2.78125 C 1.394531 -3.3125 1.5 -3.757812 1.71875 -4.125 C 1.9375 -4.488281 2.203125 -4.789062 2.515625 -5.03125 C 3.148438 -4.6875 3.878906 -4.378906 4.703125 -4.109375 C 5.523438 -3.847656 6.476562 -3.71875 7.5625 -3.71875 C 8.238281 -3.726562 8.757812 -3.832031 9.125 -4.03125 C 9.488281 -4.226562 9.671875 -4.488281 9.671875 -4.8125 C 9.671875 -5.125 9.535156 -5.367188 9.265625 -5.546875 C 9.003906 -5.722656 8.5625 -5.863281 7.9375 -5.96875 L 6.953125 -6.15625 C 5.035156 -6.519531 3.609375 -7.097656 2.671875 -7.890625 C 1.734375 -8.691406 1.257812 -9.84375 1.25 -11.34375 C 1.238281 -12.15625 1.40625 -12.890625 1.75 -13.546875 C 2.101562 -14.210938 2.597656 -14.765625 3.234375 -15.203125 C 3.867188 -15.648438 4.628906 -16 5.515625 -16.25 C 6.410156 -16.5 7.394531 -16.628906 8.46875 -16.640625 C 9.289062 -16.640625 10.054688 -16.578125 10.765625 -16.453125 C 11.484375 -16.335938 12.101562 -16.160156 12.625 -15.921875 C 13.15625 -15.691406 13.578125 -15.382812 13.890625 -15 C 14.203125 -14.613281 14.359375 -14.15625 14.359375 -13.625 C 14.359375 -13.125 14.269531 -12.691406 14.09375 -12.328125 C 13.914062 -11.960938 13.679688 -11.660156 13.390625 -11.421875 C 13.210938 -11.523438 12.945312 -11.632812 12.59375 -11.75 C 12.25 -11.875 11.863281 -11.984375 11.4375 -12.078125 C 11.019531 -12.179688 10.597656 -12.257812 10.171875 -12.3125 C 9.742188 -12.375 9.351562 -12.40625 9 -12.40625 C 8.269531 -12.40625 7.707031 -12.320312 7.3125 -12.15625 C 6.914062 -11.988281 6.71875 -11.726562 6.71875 -11.375 C 6.71875 -11.132812 6.828125 -10.9375 7.046875 -10.78125 C 7.273438 -10.625 7.695312 -10.484375 8.3125 -10.359375 L 9.34375 -10.125 C 11.457031 -9.664062 12.960938 -9.015625 13.859375 -8.171875 C 14.753906 -7.328125 15.207031 -6.234375 15.21875 -4.890625 Z M 15.21875 -4.890625 "/></g></g></g><g fill="#333333" fill-opacity="1"><g transform="translate(60.092026, 28.258691)"><g><path d="M 17.46875 1.734375 C 17.25 1.773438 16.898438 1.804688 16.421875 1.828125 C 15.941406 1.847656 15.453125 1.832031 14.953125 1.78125 C 14.460938 1.738281 14.03125 1.660156 13.65625 1.546875 C 13.289062 1.441406 12.984375 1.273438 12.734375 1.046875 C 12.484375 0.828125 12.304688 0.539062 12.203125 0.1875 C 12.097656 -0.15625 12.070312 -0.601562 12.125 -1.15625 L 12.875 -8.453125 C 12.957031 -9.347656 12.796875 -10 12.390625 -10.40625 C 11.984375 -10.820312 11.453125 -11.0625 10.796875 -11.125 C 10.359375 -11.164062 9.929688 -11.148438 9.515625 -11.078125 C 9.109375 -11.003906 8.78125 -10.90625 8.53125 -10.78125 L 7.359375 0.71875 C 7.140625 0.757812 6.785156 0.785156 6.296875 0.796875 C 5.816406 0.816406 5.328125 0.804688 4.828125 0.765625 C 4.347656 0.710938 3.921875 0.628906 3.546875 0.515625 C 3.171875 0.410156 2.859375 0.242188 2.609375 0.015625 C 2.367188 -0.203125 2.191406 -0.484375 2.078125 -0.828125 C 1.972656 -1.171875 1.945312 -1.617188 2 -2.171875 L 3.9375 -21.234375 C 4.175781 -21.253906 4.535156 -21.28125 5.015625 -21.3125 C 5.503906 -21.34375 5.992188 -21.332031 6.484375 -21.28125 C 6.953125 -21.238281 7.375 -21.160156 7.75 -21.046875 C 8.132812 -20.941406 8.445312 -20.773438 8.6875 -20.546875 C 8.9375 -20.328125 9.113281 -20.035156 9.21875 -19.671875 C 9.320312 -19.316406 9.347656 -18.875 9.296875 -18.34375 L 8.96875 -15.125 C 9.257812 -15.195312 9.703125 -15.273438 10.296875 -15.359375 C 10.898438 -15.453125 11.550781 -15.460938 12.25 -15.390625 C 14.414062 -15.171875 16.050781 -14.457031 17.15625 -13.25 C 18.257812 -12.039062 18.703125 -10.363281 18.484375 -8.21875 Z M 17.46875 1.734375 "/></g></g></g><g fill="#333333" fill-opacity="1"><g transform="translate(78.348594, 30.083659)"><g><path d="M 17.625 0.875 C 17.300781 1.863281 16.835938 2.570312 16.234375 3 C 15.628906 3.4375 14.863281 3.554688 13.9375 3.359375 C 13.238281 3.203125 12.660156 2.898438 12.203125 2.453125 C 11.742188 2.003906 11.289062 1.3125 10.84375 0.375 L 8.515625 -4.328125 L 7.21875 1.546875 C 6.988281 1.535156 6.628906 1.519531 6.140625 1.5 C 5.660156 1.476562 5.1875 1.414062 4.71875 1.3125 C 4.238281 1.207031 3.816406 1.078125 3.453125 0.921875 C 3.097656 0.773438 2.8125 0.578125 2.59375 0.328125 C 2.382812 0.078125 2.242188 -0.226562 2.171875 -0.59375 C 2.097656 -0.957031 2.117188 -1.40625 2.234375 -1.9375 L 6.328125 -20.625 C 6.578125 -20.632812 6.941406 -20.625 7.421875 -20.59375 C 7.910156 -20.570312 8.394531 -20.507812 8.875 -20.40625 C 9.34375 -20.300781 9.753906 -20.175781 10.109375 -20.03125 C 10.472656 -19.882812 10.765625 -19.6875 10.984375 -19.4375 C 11.203125 -19.1875 11.34375 -18.875 11.40625 -18.5 C 11.46875 -18.132812 11.4375 -17.691406 11.3125 -17.171875 L 9.453125 -8.65625 L 16.265625 -13.109375 C 17.378906 -12.867188 18.21875 -12.425781 18.78125 -11.78125 C 19.351562 -11.132812 19.554688 -10.4375 19.390625 -9.6875 C 19.316406 -9.363281 19.195312 -9.078125 19.03125 -8.828125 C 18.875 -8.585938 18.648438 -8.347656 18.359375 -8.109375 C 18.066406 -7.878906 17.707031 -7.648438 17.28125 -7.421875 C 16.863281 -7.191406 16.375 -6.921875 15.8125 -6.609375 L 13.578125 -5.40625 Z M 17.625 0.875 "/></g></g></g><path stroke-linecap="round" transform="matrix(-0.446456, -0.602642, 0.602642, -0.446456, 96.86881, 20.176086)" fill="none" stroke-linejoin="miter" d="M 0.767615 0.76692 C 1.26207 1.061928 1.913878 1.013294 2.723039 0.621019 " stroke="#f1ebdf" stroke-width="1" stroke-opacity="1" stroke-miterlimit="4"/><path stroke-linecap="round" transform="matrix(0.479484, -0.57671, 0.57671, 0.479484, 95.240722, 21.766826)" fill="none" stroke-linejoin="miter" d="M 0.714603 0.661478 C 1.535182 0.947825 2.168666 0.976552 2.623064 0.741 " stroke="#f1ebdf" stroke-width="1" stroke-opacity="1" stroke-miterlimit="4"/><path stroke-linecap="round" transform="matrix(-0.36351, -0.656019, 0.656019, -0.36351, 109.20214, 22.837134)" fill="none" stroke-linejoin="miter" d="M 0.811966 0.719376 C 1.354586 1.008141 1.847291 0.989386 2.294637 0.665637 " stroke="#f1ebdf" stroke-width="1" stroke-opacity="1" stroke-miterlimit="4"/><path stroke-linecap="round" transform="matrix(-0.718456, 0.215222, -0.215222, -0.718456, 104.992531, 19.6951)" fill="none" stroke-linejoin="miter" d="M 0.80698 0.7199 C 1.351361 1.008026 1.851718 0.989367 2.296578 0.665921 " stroke="#f1ebdf" stroke-width="1" stroke-opacity="1" stroke-miterlimit="4"/><path stroke-linecap="round" transform="matrix(-0.138454, -0.73711, 0.73711, -0.138454, 109.534038, 14.597614)" fill="none" stroke-linejoin="miter" d="M 0.546935 0.501706 C 1.150671 0.50382 1.707376 0.5024 2.227288 0.499368 " stroke="#f1ebdf" stroke-width="1" stroke-opacity="1" stroke-miterlimit="4"/><path stroke-linecap="round" transform="matrix(-0.138454, -0.73711, 0.73711, -0.138454, 110.052592, 16.991251)" fill="none" stroke-linejoin="miter" d="M 0.545522 0.502767 C 1.15022 0.499762 1.711083 0.504422 2.225876 0.500429 " stroke="#f1ebdf" stroke-width="1" stroke-opacity="1" stroke-miterlimit="4"/></svg>