<svg xmlns="http://www.w3.org/2000/svg" xmlns:xlink="http://www.w3.org/1999/xlink" width="120" zoomAndPan="magnify" viewBox="0 0 90 89.999999" height="120" preserveAspectRatio="xMidYMid meet" version="1.0"><defs><g/><clipPath id="28c3274561"><path d="M 8.421875 17.796875 L 26.410156 17.796875 L 26.410156 25.5 L 8.421875 25.5 Z M 8.421875 17.796875 " clip-rule="nonzero"/></clipPath><clipPath id="d8ae5c6521"><path d="M 12.273438 17.796875 L 22.535156 17.796875 C 24.664062 17.796875 26.386719 19.523438 26.386719 21.648438 C 26.386719 23.773438 24.664062 25.5 22.535156 25.5 L 12.273438 25.5 C 10.144531 25.5 8.421875 23.773438 8.421875 21.648438 C 8.421875 19.523438 10.144531 17.796875 12.273438 17.796875 Z M 12.273438 17.796875 " clip-rule="nonzero"/></clipPath><clipPath id="586b98ecbb"><path d="M 33.488281 17.160156 L 63.964844 17.160156 L 63.964844 25.78125 L 33.488281 25.78125 Z M 33.488281 17.160156 " clip-rule="nonzero"/></clipPath><clipPath id="b776ca002f"><path d="M 26.824219 17.796875 L 44.8125 17.796875 L 44.8125 25.5 L 26.824219 25.5 Z M 26.824219 17.796875 " clip-rule="nonzero"/></clipPath><clipPath id="fffe43132c"><path d="M 30.675781 17.796875 L 40.9375 17.796875 C 43.0625 17.796875 44.789062 19.523438 44.789062 21.648438 C 44.789062 23.773438 43.0625 25.5 40.9375 25.5 L 30.675781 25.5 C 28.546875 25.5 26.824219 23.773438 26.824219 21.648438 C 26.824219 19.523438 28.546875 17.796875 30.675781 17.796875 Z M 30.675781 17.796875 " clip-rule="nonzero"/></clipPath><clipPath id="32cd926fe9"><path d="M 45.21875 17.796875 L 63.207031 17.796875 L 63.207031 25.5 L 45.21875 25.5 Z M 45.21875 17.796875 " clip-rule="nonzero"/></clipPath><clipPath id="fcb9445e57"><path d="M 49.070312 17.796875 L 59.332031 17.796875 C 61.457031 17.796875 63.183594 19.523438 63.183594 21.648438 C 63.183594 23.773438 61.457031 25.5 59.332031 25.5 L 49.070312 25.5 C 46.941406 25.5 45.21875 23.773438 45.21875 21.648438 C 45.21875 19.523438 46.941406 17.796875 49.070312 17.796875 Z M 49.070312 17.796875 " clip-rule="nonzero"/></clipPath><clipPath id="d33cea0fe0"><path d="M 8.421875 26.085938 L 54.207031 26.085938 L 54.207031 33.789062 L 8.421875 33.789062 Z M 8.421875 26.085938 " clip-rule="nonzero"/></clipPath><clipPath id="ca9e046257"><path d="M 12.273438 26.085938 L 50.351562 26.085938 C 52.476562 26.085938 54.199219 27.808594 54.199219 29.9375 C 54.199219 32.0625 52.476562 33.789062 50.351562 33.789062 L 12.273438 33.789062 C 10.144531 33.789062 8.421875 32.0625 8.421875 29.9375 C 8.421875 27.808594 10.144531 26.085938 12.273438 26.085938 Z M 12.273438 26.085938 " clip-rule="nonzero"/></clipPath><clipPath id="d1d558e8a8"><path d="M 54.632812 26.085938 L 81.585938 26.085938 L 81.585938 33.789062 L 54.632812 33.789062 Z M 54.632812 26.085938 " clip-rule="nonzero"/></clipPath><clipPath id="f14e86bc5b"><path d="M 58.480469 26.085938 L 77.726562 26.085938 C 79.855469 26.085938 81.578125 27.808594 81.578125 29.9375 C 81.578125 32.0625 79.855469 33.789062 77.726562 33.789062 L 58.480469 33.789062 C 56.355469 33.789062 54.632812 32.0625 54.632812 29.9375 C 54.632812 27.808594 56.355469 26.085938 58.480469 26.085938 Z M 58.480469 26.085938 " clip-rule="nonzero"/></clipPath><clipPath id="b9a0582754"><path d="M 39.226562 34.402344 L 81.585938 34.402344 L 81.585938 42.105469 L 39.226562 42.105469 Z M 39.226562 34.402344 " clip-rule="nonzero"/></clipPath><clipPath id="22bbc4c438"><path d="M 43.078125 34.402344 L 77.726562 34.402344 C 79.855469 34.402344 81.578125 36.125 81.578125 38.253906 C 81.578125 40.378906 79.855469 42.105469 77.726562 42.105469 L 43.078125 42.105469 C 40.953125 42.105469 39.226562 40.378906 39.226562 38.253906 C 39.226562 36.125 40.953125 34.402344 43.078125 34.402344 Z M 43.078125 34.402344 " clip-rule="nonzero"/></clipPath><clipPath id="9139c64779"><path d="M 26.824219 51.128906 L 56.679688 51.128906 L 56.679688 58.640625 L 26.824219 58.640625 Z M 26.824219 51.128906 " clip-rule="nonzero"/></clipPath><clipPath id="0f4a56367f"><path d="M 8.421875 51.027344 L 55.832031 51.027344 L 55.832031 58.730469 L 8.421875 58.730469 Z M 8.421875 51.027344 " clip-rule="nonzero"/></clipPath><clipPath id="5edbfb4b0b"><path d="M 12.273438 51.027344 L 51.964844 51.027344 C 54.089844 51.027344 55.8125 52.75 55.8125 54.878906 C 55.8125 57.003906 54.089844 58.730469 51.964844 58.730469 L 12.273438 58.730469 C 10.144531 58.730469 8.421875 57.003906 8.421875 54.878906 C 8.421875 52.75 10.144531 51.027344 12.273438 51.027344 Z M 12.273438 51.027344 " clip-rule="nonzero"/></clipPath><clipPath id="38cba3015e"><path d="M 8.421875 59.34375 L 81.585938 59.34375 L 81.585938 67.046875 L 8.421875 67.046875 Z M 8.421875 59.34375 " clip-rule="nonzero"/></clipPath><clipPath id="25ab8bf02b"><path d="M 12.273438 59.34375 L 77.726562 59.34375 C 79.855469 59.34375 81.578125 61.070312 81.578125 63.195312 C 81.578125 65.320312 79.855469 67.046875 77.726562 67.046875 L 12.273438 67.046875 C 10.144531 67.046875 8.421875 65.320312 8.421875 63.195312 C 8.421875 61.070312 10.144531 59.34375 12.273438 59.34375 Z M 12.273438 59.34375 " clip-rule="nonzero"/></clipPath><clipPath id="a21472eb34"><path d="M 23.554688 67.929688 L 31.121094 67.929688 L 31.121094 75.496094 L 23.554688 75.496094 Z M 23.554688 67.929688 " clip-rule="nonzero"/></clipPath><clipPath id="aa08c9f803"><path d="M 27.339844 67.929688 C 25.25 67.929688 23.554688 69.625 23.554688 71.714844 C 23.554688 73.804688 25.25 75.496094 27.339844 75.496094 C 29.429688 75.496094 31.121094 73.804688 31.121094 71.714844 C 31.121094 69.625 29.429688 67.929688 27.339844 67.929688 Z M 27.339844 67.929688 " clip-rule="nonzero"/></clipPath><clipPath id="8b5cabf976"><path d="M 23.554688 67.929688 L 31.054688 67.929688 L 31.054688 75.429688 L 23.554688 75.429688 Z M 23.554688 67.929688 " clip-rule="nonzero"/></clipPath><clipPath id="f39c43c17e"><path d="M 27.335938 67.929688 C 25.246094 67.929688 23.554688 69.621094 23.554688 71.710938 C 23.554688 73.796875 25.246094 75.488281 27.335938 75.488281 C 29.421875 75.488281 31.113281 73.796875 31.113281 71.710938 C 31.113281 69.621094 29.421875 67.929688 27.335938 67.929688 Z M 27.335938 67.929688 " clip-rule="nonzero"/></clipPath><clipPath id="719df59c77"><path d="M 31.3125 67.660156 L 44.789062 67.660156 L 44.789062 75.363281 L 31.3125 75.363281 Z M 31.3125 67.660156 " clip-rule="nonzero"/></clipPath><clipPath id="614e88ced3"><path d="M 35.160156 67.660156 L 40.9375 67.660156 C 43.0625 67.660156 44.789062 69.386719 44.789062 71.511719 C 44.789062 73.640625 43.0625 75.363281 40.9375 75.363281 L 35.160156 75.363281 C 33.035156 75.363281 31.3125 73.640625 31.3125 71.511719 C 31.3125 69.386719 33.035156 67.660156 35.160156 67.660156 Z M 35.160156 67.660156 " clip-rule="nonzero"/></clipPath><clipPath id="2ecc8a14d9"><path d="M 45.21875 67.660156 L 63.207031 67.660156 L 63.207031 75.363281 L 45.21875 75.363281 Z M 45.21875 67.660156 " clip-rule="nonzero"/></clipPath><clipPath id="0444790e7a"><path d="M 49.070312 67.660156 L 59.332031 67.660156 C 61.457031 67.660156 63.183594 69.386719 63.183594 71.511719 C 63.183594 73.640625 61.457031 75.363281 59.332031 75.363281 L 49.070312 75.363281 C 46.941406 75.363281 45.21875 73.640625 45.21875 71.511719 C 45.21875 69.386719 46.941406 67.660156 49.070312 67.660156 Z M 49.070312 67.660156 " clip-rule="nonzero"/></clipPath><clipPath id="30cc7a4c82"><path d="M 63.613281 67.660156 L 81.601562 67.660156 L 81.601562 75.363281 L 63.613281 75.363281 Z M 63.613281 67.660156 " clip-rule="nonzero"/></clipPath><clipPath id="f7ada4496b"><path d="M 67.464844 67.660156 L 77.726562 67.660156 C 79.855469 67.660156 81.578125 69.386719 81.578125 71.511719 C 81.578125 73.640625 79.855469 75.363281 77.726562 75.363281 L 67.464844 75.363281 C 65.335938 75.363281 63.613281 73.640625 63.613281 71.511719 C 63.613281 69.386719 65.335938 67.660156 67.464844 67.660156 Z M 67.464844 67.660156 " clip-rule="nonzero"/></clipPath><clipPath id="77546430d4"><path d="M 8.421875 42.71875 L 81.585938 42.71875 L 81.585938 50.421875 L 8.421875 50.421875 Z M 8.421875 42.71875 " clip-rule="nonzero"/></clipPath><clipPath id="95077b96c7"><path d="M 12.273438 42.71875 L 77.726562 42.71875 C 79.855469 42.71875 81.578125 44.445312 81.578125 46.570312 C 81.578125 48.695312 79.855469 50.421875 77.726562 50.421875 L 12.273438 50.421875 C 10.144531 50.421875 8.421875 48.695312 8.421875 46.570312 C 8.421875 44.445312 10.144531 42.71875 12.273438 42.71875 Z M 12.273438 42.71875 " clip-rule="nonzero"/></clipPath><clipPath id="e0bcaac5c0"><path d="M 63.050781 18.734375 L 70.441406 18.734375 L 70.441406 25.417969 L 63.050781 25.417969 Z M 63.050781 18.734375 " clip-rule="nonzero"/></clipPath><clipPath id="bfebe0534d"><path d="M 67.484375 19.179688 L 70.304688 24.113281 C 70.457031 24.382812 70.457031 24.714844 70.300781 24.984375 C 70.144531 25.253906 69.859375 25.417969 69.546875 25.417969 L 63.933594 25.417969 C 63.621094 25.417969 63.335938 25.253906 63.179688 24.984375 C 63.023438 24.714844 63.023438 24.382812 63.175781 24.113281 L 65.996094 19.179688 C 66.148438 18.914062 66.433594 18.75 66.742188 18.75 C 67.046875 18.75 67.332031 18.914062 67.484375 19.179688 Z M 67.484375 19.179688 " clip-rule="nonzero"/></clipPath><clipPath id="41daa590cc"><path d="M 63 18.6875 L 70.507812 18.6875 L 70.507812 25.378906 L 63 25.378906 Z M 63 18.6875 " clip-rule="nonzero"/></clipPath><clipPath id="ea9cfd4fd4"><path d="M 67.484375 19.179688 L 70.300781 24.113281 C 70.457031 24.382812 70.453125 24.710938 70.296875 24.980469 C 70.144531 25.25 69.855469 25.414062 69.546875 25.414062 L 63.933594 25.414062 C 63.621094 25.414062 63.335938 25.25 63.179688 24.980469 C 63.023438 24.710938 63.023438 24.382812 63.175781 24.113281 L 65.996094 19.179688 C 66.148438 18.914062 66.433594 18.75 66.738281 18.75 C 67.046875 18.75 67.332031 18.914062 67.484375 19.179688 Z M 67.484375 19.179688 " clip-rule="nonzero"/></clipPath><clipPath id="0921a1e1db"><path d="M 68.09375 18.242188 L 75.484375 18.242188 L 75.484375 24.925781 L 68.09375 24.925781 Z M 68.09375 18.242188 " clip-rule="nonzero"/></clipPath><clipPath id="39a01ffa4a"><path d="M 71.050781 24.476562 L 68.234375 19.542969 C 68.078125 19.273438 68.078125 18.941406 68.234375 18.675781 C 68.390625 18.40625 68.679688 18.242188 68.988281 18.242188 L 74.605469 18.242188 C 74.914062 18.242188 75.199219 18.40625 75.355469 18.675781 C 75.511719 18.941406 75.511719 19.273438 75.359375 19.542969 L 72.539062 24.476562 C 72.386719 24.742188 72.105469 24.910156 71.796875 24.910156 C 71.488281 24.910156 71.203125 24.742188 71.050781 24.476562 Z M 71.050781 24.476562 " clip-rule="nonzero"/></clipPath><clipPath id="82b1f1c45d"><path d="M 68.03125 18.277344 L 75.566406 18.277344 L 75.566406 24.972656 L 68.03125 24.972656 Z M 68.03125 18.277344 " clip-rule="nonzero"/></clipPath><clipPath id="513a94b890"><path d="M 71.054688 24.476562 L 68.234375 19.546875 C 68.082031 19.277344 68.082031 18.945312 68.238281 18.675781 C 68.394531 18.410156 68.679688 18.242188 68.992188 18.242188 L 74.601562 18.242188 C 74.914062 18.242188 75.199219 18.410156 75.355469 18.675781 C 75.511719 18.945312 75.511719 19.277344 75.359375 19.546875 L 72.539062 24.476562 C 72.386719 24.746094 72.105469 24.910156 71.796875 24.910156 C 71.488281 24.910156 71.207031 24.746094 71.054688 24.476562 Z M 71.054688 24.476562 " clip-rule="nonzero"/></clipPath><clipPath id="7af8d9003c"><path d="M 73.582031 18.652344 L 80.972656 18.652344 L 80.972656 25.335938 L 73.582031 25.335938 Z M 73.582031 18.652344 " clip-rule="nonzero"/></clipPath><clipPath id="beebcc3bfe"><path d="M 78.015625 19.101562 L 80.832031 24.035156 C 80.988281 24.304688 80.988281 24.632812 80.832031 24.902344 C 80.675781 25.171875 80.386719 25.335938 80.078125 25.335938 L 74.460938 25.335938 C 74.152344 25.335938 73.867188 25.171875 73.710938 24.902344 C 73.554688 24.632812 73.554688 24.304688 73.707031 24.035156 L 76.527344 19.101562 C 76.679688 18.832031 76.960938 18.667969 77.269531 18.667969 C 77.578125 18.667969 77.863281 18.832031 78.015625 19.101562 Z M 78.015625 19.101562 " clip-rule="nonzero"/></clipPath><clipPath id="1c393706bb"><path d="M 73.5 18.605469 L 81 18.605469 L 81 25.296875 L 73.5 25.296875 Z M 73.5 18.605469 " clip-rule="nonzero"/></clipPath><clipPath id="0e18c34656"><path d="M 78.011719 19.097656 L 80.832031 24.03125 C 80.984375 24.300781 80.984375 24.632812 80.828125 24.898438 C 80.671875 25.167969 80.386719 25.332031 80.074219 25.332031 L 74.464844 25.332031 C 74.152344 25.332031 73.867188 25.167969 73.710938 24.898438 C 73.554688 24.632812 73.554688 24.300781 73.707031 24.03125 L 76.527344 19.097656 C 76.679688 18.832031 76.960938 18.667969 77.269531 18.667969 C 77.578125 18.667969 77.859375 18.832031 78.011719 19.097656 Z M 78.011719 19.097656 " clip-rule="nonzero"/></clipPath><clipPath id="d855ee5c14"><path d="M 56.433594 51.546875 L 63.824219 51.546875 L 63.824219 58.230469 L 56.433594 58.230469 Z M 56.433594 51.546875 " clip-rule="nonzero"/></clipPath><clipPath id="3900a7992d"><path d="M 60.867188 51.992188 L 63.683594 56.925781 C 63.839844 57.195312 63.835938 57.527344 63.683594 57.796875 C 63.527344 58.066406 63.238281 58.230469 62.929688 58.230469 L 57.3125 58.230469 C 57.003906 58.230469 56.71875 58.066406 56.5625 57.796875 C 56.40625 57.527344 56.402344 57.195312 56.558594 56.925781 L 59.378906 51.992188 C 59.53125 51.726562 59.8125 51.5625 60.121094 51.5625 C 60.429688 51.5625 60.714844 51.726562 60.867188 51.992188 Z M 60.867188 51.992188 " clip-rule="nonzero"/></clipPath><clipPath id="5532e4426a"><path d="M 56.351562 51.5 L 63.886719 51.5 L 63.886719 58.191406 L 56.351562 58.191406 Z M 56.351562 51.5 " clip-rule="nonzero"/></clipPath><clipPath id="faae5c3ce0"><path d="M 60.863281 51.992188 L 63.683594 56.925781 C 63.835938 57.195312 63.835938 57.523438 63.679688 57.792969 C 63.523438 58.0625 63.238281 58.226562 62.925781 58.226562 L 57.3125 58.226562 C 57.003906 58.226562 56.71875 58.0625 56.5625 57.792969 C 56.40625 57.523438 56.40625 57.195312 56.558594 56.925781 L 59.375 51.992188 C 59.527344 51.726562 59.8125 51.5625 60.121094 51.5625 C 60.429688 51.5625 60.710938 51.726562 60.863281 51.992188 Z M 60.863281 51.992188 " clip-rule="nonzero"/></clipPath><clipPath id="f4df31b20f"><path d="M 61.476562 51.054688 L 68.867188 51.054688 L 68.867188 57.738281 L 61.476562 57.738281 Z M 61.476562 51.054688 " clip-rule="nonzero"/></clipPath><clipPath id="73a8d3ecb0"><path d="M 64.433594 57.289062 L 61.613281 52.355469 C 61.460938 52.085938 61.460938 51.753906 61.617188 51.488281 C 61.773438 51.21875 62.058594 51.054688 62.371094 51.054688 L 67.984375 51.054688 C 68.296875 51.054688 68.582031 51.21875 68.738281 51.488281 C 68.894531 51.753906 68.894531 52.085938 68.742188 52.355469 L 65.921875 57.289062 C 65.769531 57.554688 65.484375 57.722656 65.175781 57.722656 C 64.871094 57.722656 64.585938 57.554688 64.433594 57.289062 Z M 64.433594 57.289062 " clip-rule="nonzero"/></clipPath><clipPath id="94612bcd2a"><path d="M 61.410156 51.089844 L 68.945312 51.089844 L 68.945312 57.785156 L 61.410156 57.785156 Z M 61.410156 51.089844 " clip-rule="nonzero"/></clipPath><clipPath id="9025cc1c0a"><path d="M 64.433594 57.289062 L 61.617188 52.359375 C 61.460938 52.089844 61.464844 51.757812 61.621094 51.488281 C 61.773438 51.222656 62.0625 51.054688 62.371094 51.054688 L 67.984375 51.054688 C 68.292969 51.054688 68.582031 51.222656 68.738281 51.488281 C 68.894531 51.757812 68.894531 52.089844 68.738281 52.359375 L 65.921875 57.289062 C 65.769531 57.558594 65.484375 57.722656 65.179688 57.722656 C 64.871094 57.722656 64.585938 57.558594 64.433594 57.289062 Z M 64.433594 57.289062 " clip-rule="nonzero"/></clipPath><clipPath id="2d12f5ed4f"><path d="M 66.960938 51.464844 L 74.351562 51.464844 L 74.351562 58.148438 L 66.960938 58.148438 Z M 66.960938 51.464844 " clip-rule="nonzero"/></clipPath><clipPath id="e703ddd88d"><path d="M 71.394531 51.914062 L 74.214844 56.847656 C 74.367188 57.117188 74.367188 57.445312 74.210938 57.714844 C 74.054688 57.984375 73.769531 58.148438 73.460938 58.148438 L 67.84375 58.148438 C 67.535156 58.148438 67.246094 57.984375 67.089844 57.714844 C 66.933594 57.445312 66.933594 57.117188 67.089844 56.847656 L 69.90625 51.914062 C 70.058594 51.644531 70.34375 51.480469 70.652344 51.480469 C 70.960938 51.480469 71.242188 51.644531 71.394531 51.914062 Z M 71.394531 51.914062 " clip-rule="nonzero"/></clipPath><clipPath id="47b3e23ac0"><path d="M 66.882812 51.417969 L 74.417969 51.417969 L 74.417969 58.109375 L 66.882812 58.109375 Z M 66.882812 51.417969 " clip-rule="nonzero"/></clipPath><clipPath id="ef7d226005"><path d="M 71.394531 51.910156 L 74.210938 56.84375 C 74.367188 57.113281 74.367188 57.445312 74.210938 57.710938 C 74.054688 57.980469 73.765625 58.144531 73.457031 58.144531 L 67.84375 58.144531 C 67.535156 58.144531 67.246094 57.980469 67.089844 57.710938 C 66.9375 57.445312 66.933594 57.113281 67.089844 56.84375 L 69.90625 51.910156 C 70.058594 51.644531 70.34375 51.480469 70.652344 51.480469 C 70.957031 51.480469 71.242188 51.644531 71.394531 51.910156 Z M 71.394531 51.910156 " clip-rule="nonzero"/></clipPath><clipPath id="1c2702070c"><path d="M 71.953125 51.054688 L 79.34375 51.054688 L 79.34375 57.738281 L 71.953125 57.738281 Z M 71.953125 51.054688 " clip-rule="nonzero"/></clipPath><clipPath id="c205e7ba1e"><path d="M 74.910156 57.289062 L 72.089844 52.355469 C 71.9375 52.085938 71.9375 51.753906 72.09375 51.488281 C 72.25 51.21875 72.535156 51.054688 72.847656 51.054688 L 78.460938 51.054688 C 78.773438 51.054688 79.058594 51.21875 79.214844 51.488281 C 79.371094 51.753906 79.371094 52.085938 79.21875 52.355469 L 76.398438 57.289062 C 76.246094 57.554688 75.960938 57.722656 75.652344 57.722656 C 75.347656 57.722656 75.0625 57.554688 74.910156 57.289062 Z M 74.910156 57.289062 " clip-rule="nonzero"/></clipPath><clipPath id="b3943ba741"><path d="M 71.886719 51.089844 L 79.421875 51.089844 L 79.421875 57.785156 L 71.886719 57.785156 Z M 71.886719 51.089844 " clip-rule="nonzero"/></clipPath><clipPath id="9d062dcdb1"><path d="M 74.910156 57.289062 L 72.09375 52.359375 C 71.9375 52.089844 71.941406 51.757812 72.09375 51.488281 C 72.25 51.222656 72.539062 51.054688 72.847656 51.054688 L 78.460938 51.054688 C 78.769531 51.054688 79.058594 51.222656 79.214844 51.488281 C 79.371094 51.757812 79.371094 52.089844 79.214844 52.359375 L 76.398438 57.289062 C 76.246094 57.558594 75.960938 57.722656 75.65625 57.722656 C 75.347656 57.722656 75.0625 57.558594 74.910156 57.289062 Z M 74.910156 57.289062 " clip-rule="nonzero"/></clipPath><clipPath id="5b39a8650e"><path d="M 8.421875 34.402344 L 15.988281 34.402344 L 15.988281 41.96875 L 8.421875 41.96875 Z M 8.421875 34.402344 " clip-rule="nonzero"/></clipPath><clipPath id="4b1c6502ff"><path d="M 12.207031 34.402344 C 10.117188 34.402344 8.421875 36.097656 8.421875 38.1875 C 8.421875 40.277344 10.117188 41.96875 12.207031 41.96875 C 14.292969 41.96875 15.988281 40.277344 15.988281 38.1875 C 15.988281 36.097656 14.292969 34.402344 12.207031 34.402344 Z M 12.207031 34.402344 " clip-rule="nonzero"/></clipPath><clipPath id="dba9a1815f"><path d="M 8.421875 34.402344 L 15.921875 34.402344 L 15.921875 41.902344 L 8.421875 41.902344 Z M 8.421875 34.402344 " clip-rule="nonzero"/></clipPath><clipPath id="f1dc32544d"><path d="M 12.203125 34.402344 C 10.113281 34.402344 8.421875 36.09375 8.421875 38.183594 C 8.421875 40.269531 10.113281 41.960938 12.203125 41.960938 C 14.289062 41.960938 15.980469 40.269531 15.980469 38.183594 C 15.980469 36.09375 14.289062 34.402344 12.203125 34.402344 Z M 12.203125 34.402344 " clip-rule="nonzero"/></clipPath><clipPath id="67f81fda1e"><path d="M 15.988281 34.402344 L 23.554688 34.402344 L 23.554688 41.96875 L 15.988281 41.96875 Z M 15.988281 34.402344 " clip-rule="nonzero"/></clipPath><clipPath id="0a833e8e87"><path d="M 19.773438 34.402344 C 17.683594 34.402344 15.988281 36.097656 15.988281 38.1875 C 15.988281 40.277344 17.683594 41.96875 19.773438 41.96875 C 21.863281 41.96875 23.554688 40.277344 23.554688 38.1875 C 23.554688 36.097656 21.863281 34.402344 19.773438 34.402344 Z M 19.773438 34.402344 " clip-rule="nonzero"/></clipPath><clipPath id="c9a3735bf6"><path d="M 15.988281 34.402344 L 23.488281 34.402344 L 23.488281 41.902344 L 15.988281 41.902344 Z M 15.988281 34.402344 " clip-rule="nonzero"/></clipPath><clipPath id="1ed5985cc2"><path d="M 19.769531 34.402344 C 17.679688 34.402344 15.988281 36.09375 15.988281 38.183594 C 15.988281 40.269531 17.679688 41.960938 19.769531 41.960938 C 21.855469 41.960938 23.546875 40.269531 23.546875 38.183594 C 23.546875 36.09375 21.855469 34.402344 19.769531 34.402344 Z M 19.769531 34.402344 " clip-rule="nonzero"/></clipPath><clipPath id="10d56173eb"><path d="M 23.554688 34.539062 L 31.121094 34.539062 L 31.121094 42.105469 L 23.554688 42.105469 Z M 23.554688 34.539062 " clip-rule="nonzero"/></clipPath><clipPath id="a3466bdc32"><path d="M 27.339844 34.539062 C 25.25 34.539062 23.554688 36.230469 23.554688 38.320312 C 23.554688 40.410156 25.25 42.105469 27.339844 42.105469 C 29.429688 42.105469 31.121094 40.410156 31.121094 38.320312 C 31.121094 36.230469 29.429688 34.539062 27.339844 34.539062 Z M 27.339844 34.539062 " clip-rule="nonzero"/></clipPath><clipPath id="f59c55edf4"><path d="M 23.554688 34.539062 L 31.054688 34.539062 L 31.054688 42.039062 L 23.554688 42.039062 Z M 23.554688 34.539062 " clip-rule="nonzero"/></clipPath><clipPath id="efb395a5db"><path d="M 27.335938 34.539062 C 25.246094 34.539062 23.554688 36.230469 23.554688 38.316406 C 23.554688 40.402344 25.246094 42.097656 27.335938 42.097656 C 29.421875 42.097656 31.113281 40.402344 31.113281 38.316406 C 31.113281 36.230469 29.421875 34.539062 27.335938 34.539062 Z M 27.335938 34.539062 " clip-rule="nonzero"/></clipPath><clipPath id="60c5fedb16"><path d="M 31.121094 34.539062 L 38.6875 34.539062 L 38.6875 42.105469 L 31.121094 42.105469 Z M 31.121094 34.539062 " clip-rule="nonzero"/></clipPath><clipPath id="507ac04328"><path d="M 34.90625 34.539062 C 32.816406 34.539062 31.121094 36.230469 31.121094 38.320312 C 31.121094 40.410156 32.816406 42.105469 34.90625 42.105469 C 36.996094 42.105469 38.6875 40.410156 38.6875 38.320312 C 38.6875 36.230469 36.996094 34.539062 34.90625 34.539062 Z M 34.90625 34.539062 " clip-rule="nonzero"/></clipPath><clipPath id="f8c906f9e4"><path d="M 31.121094 34.539062 L 38.621094 34.539062 L 38.621094 42.039062 L 31.121094 42.039062 Z M 31.121094 34.539062 " clip-rule="nonzero"/></clipPath><clipPath id="d63eab59f6"><path d="M 34.902344 34.539062 C 32.8125 34.539062 31.121094 36.230469 31.121094 38.316406 C 31.121094 40.402344 32.8125 42.097656 34.902344 42.097656 C 36.988281 42.097656 38.679688 40.402344 38.679688 38.316406 C 38.679688 36.230469 36.988281 34.539062 34.902344 34.539062 Z M 34.902344 34.539062 " clip-rule="nonzero"/></clipPath><clipPath id="448463f63b"><path d="M 8.421875 67.796875 L 15.988281 67.796875 L 15.988281 75.363281 L 8.421875 75.363281 Z M 8.421875 67.796875 " clip-rule="nonzero"/></clipPath><clipPath id="049751faab"><path d="M 12.207031 67.796875 C 10.117188 67.796875 8.421875 69.488281 8.421875 71.578125 C 8.421875 73.667969 10.117188 75.363281 12.207031 75.363281 C 14.292969 75.363281 15.988281 73.667969 15.988281 71.578125 C 15.988281 69.488281 14.292969 67.796875 12.207031 67.796875 Z M 12.207031 67.796875 " clip-rule="nonzero"/></clipPath><clipPath id="57b090751d"><path d="M 8.421875 67.796875 L 15.921875 67.796875 L 15.921875 75.296875 L 8.421875 75.296875 Z M 8.421875 67.796875 " clip-rule="nonzero"/></clipPath><clipPath id="a10ebf218a"><path d="M 12.203125 67.796875 C 10.113281 67.796875 8.421875 69.488281 8.421875 71.574219 C 8.421875 73.664062 10.113281 75.355469 12.203125 75.355469 C 14.289062 75.355469 15.980469 73.664062 15.980469 71.574219 C 15.980469 69.488281 14.289062 67.796875 12.203125 67.796875 Z M 12.203125 67.796875 " clip-rule="nonzero"/></clipPath><clipPath id="97713bbaa1"><path d="M 15.988281 67.796875 L 23.554688 67.796875 L 23.554688 75.363281 L 15.988281 75.363281 Z M 15.988281 67.796875 " clip-rule="nonzero"/></clipPath><clipPath id="2f386f4bc2"><path d="M 19.773438 67.796875 C 17.683594 67.796875 15.988281 69.488281 15.988281 71.578125 C 15.988281 73.667969 17.683594 75.363281 19.773438 75.363281 C 21.863281 75.363281 23.554688 73.667969 23.554688 71.578125 C 23.554688 69.488281 21.863281 67.796875 19.773438 67.796875 Z M 19.773438 67.796875 " clip-rule="nonzero"/></clipPath><clipPath id="01510f5661"><path d="M 15.988281 67.796875 L 23.488281 67.796875 L 23.488281 75.296875 L 15.988281 75.296875 Z M 15.988281 67.796875 " clip-rule="nonzero"/></clipPath><clipPath id="3da5e792b3"><path d="M 19.769531 67.796875 C 17.679688 67.796875 15.988281 69.488281 15.988281 71.574219 C 15.988281 73.664062 17.679688 75.355469 19.769531 75.355469 C 21.855469 75.355469 23.546875 73.664062 23.546875 71.574219 C 23.546875 69.488281 21.855469 67.796875 19.769531 67.796875 Z M 19.769531 67.796875 " clip-rule="nonzero"/></clipPath></defs><g clip-path="url(#28c3274561)"><g clip-path="url(#d8ae5c6521)"><path fill="#333333" d="M 8.421875 17.796875 L 26.382812 17.796875 L 26.382812 25.5 L 8.421875 25.5 Z M 8.421875 17.796875 " fill-opacity="1" fill-rule="nonzero"/></g></g><g clip-path="url(#586b98ecbb)"><path fill="#f1ebdf" d="M 33.488281 17.160156 L 63.960938 17.160156 L 63.960938 25.78125 L 33.488281 25.78125 Z M 33.488281 17.160156 " fill-opacity="1" fill-rule="nonzero"/></g><g clip-path="url(#b776ca002f)"><g clip-path="url(#fffe43132c)"><path fill="#333333" d="M 26.824219 17.796875 L 44.785156 17.796875 L 44.785156 25.5 L 26.824219 25.5 Z M 26.824219 17.796875 " fill-opacity="1" fill-rule="nonzero"/></g></g><g clip-path="url(#32cd926fe9)"><g clip-path="url(#fcb9445e57)"><path fill="#333333" d="M 45.21875 17.796875 L 63.179688 17.796875 L 63.179688 25.5 L 45.21875 25.5 Z M 45.21875 17.796875 " fill-opacity="1" fill-rule="nonzero"/></g></g><g clip-path="url(#d33cea0fe0)"><g clip-path="url(#ca9e046257)"><path fill="#333333" d="M 8.421875 26.085938 L 54.207031 26.085938 L 54.207031 33.789062 L 8.421875 33.789062 Z M 8.421875 26.085938 " fill-opacity="1" fill-rule="nonzero"/></g></g><g clip-path="url(#d1d558e8a8)"><g clip-path="url(#f14e86bc5b)"><path fill="#333333" d="M 54.632812 26.085938 L 81.585938 26.085938 L 81.585938 33.789062 L 54.632812 33.789062 Z M 54.632812 26.085938 " fill-opacity="1" fill-rule="nonzero"/></g></g><g clip-path="url(#b9a0582754)"><g clip-path="url(#22bbc4c438)"><path fill="#333333" d="M 39.226562 34.402344 L 81.585938 34.402344 L 81.585938 42.105469 L 39.226562 42.105469 Z M 39.226562 34.402344 " fill-opacity="1" fill-rule="nonzero"/></g></g><g clip-path="url(#9139c64779)"><path fill="#f1ebdf" d="M 26.824219 51.128906 L 56.691406 51.128906 L 56.691406 58.640625 L 26.824219 58.640625 Z M 26.824219 51.128906 " fill-opacity="1" fill-rule="nonzero"/></g><g clip-path="url(#0f4a56367f)"><g clip-path="url(#5edbfb4b0b)"><path fill="#333333" d="M 8.421875 51.027344 L 55.804688 51.027344 L 55.804688 58.730469 L 8.421875 58.730469 Z M 8.421875 51.027344 " fill-opacity="1" fill-rule="nonzero"/></g></g><g clip-path="url(#38cba3015e)"><g clip-path="url(#25ab8bf02b)"><path fill="#333333" d="M 8.421875 59.34375 L 81.585938 59.34375 L 81.585938 67.046875 L 8.421875 67.046875 Z M 8.421875 59.34375 " fill-opacity="1" fill-rule="nonzero"/></g></g><g clip-path="url(#a21472eb34)"><g clip-path="url(#aa08c9f803)"><path fill="#c79a99" d="M 23.554688 67.929688 L 31.121094 67.929688 L 31.121094 75.496094 L 23.554688 75.496094 Z M 23.554688 67.929688 " fill-opacity="1" fill-rule="nonzero"/></g></g><g clip-path="url(#8b5cabf976)"><g clip-path="url(#f39c43c17e)"><path stroke-linecap="butt" transform="matrix(0.75, 0, 0, 0.75, 23.555507, 67.930546)" fill="none" stroke-linejoin="miter" d="M 5.040574 -0.00114522 C 2.254116 -0.00114522 -0.00109269 2.254063 -0.00109269 5.040522 C -0.00109269 7.821772 2.254116 10.07698 5.040574 10.07698 C 7.821824 10.07698 10.077033 7.821772 10.077033 5.040522 C 10.077033 2.254063 7.821824 -0.00114522 5.040574 -0.00114522 Z M 5.040574 -0.00114522 " stroke="#000000" stroke-width="1" stroke-opacity="1" stroke-miterlimit="4"/></g></g><g clip-path="url(#719df59c77)"><g clip-path="url(#614e88ced3)"><path fill="#333333" d="M 31.3125 67.660156 L 44.789062 67.660156 L 44.789062 75.363281 L 31.3125 75.363281 Z M 31.3125 67.660156 " fill-opacity="1" fill-rule="nonzero"/></g></g><g clip-path="url(#2ecc8a14d9)"><g clip-path="url(#0444790e7a)"><path fill="#333333" d="M 45.21875 67.660156 L 63.179688 67.660156 L 63.179688 75.363281 L 45.21875 75.363281 Z M 45.21875 67.660156 " fill-opacity="1" fill-rule="nonzero"/></g></g><g clip-path="url(#30cc7a4c82)"><g clip-path="url(#f7ada4496b)"><path fill="#333333" d="M 63.613281 67.660156 L 81.574219 67.660156 L 81.574219 75.363281 L 63.613281 75.363281 Z M 63.613281 67.660156 " fill-opacity="1" fill-rule="nonzero"/></g></g><g clip-path="url(#77546430d4)"><g clip-path="url(#95077b96c7)"><path fill="#333333" d="M 8.421875 42.71875 L 81.585938 42.71875 L 81.585938 50.421875 L 8.421875 50.421875 Z M 8.421875 42.71875 " fill-opacity="1" fill-rule="nonzero"/></g></g><g clip-path="url(#e0bcaac5c0)"><g clip-path="url(#bfebe0534d)"><path fill="#c79a99" d="M 62.433594 17.878906 L 71.0625 17.878906 L 71.0625 25.417969 L 62.433594 25.417969 Z M 62.433594 17.878906 " fill-opacity="1" fill-rule="nonzero"/></g></g><g clip-path="url(#41daa590cc)"><g clip-path="url(#ea9cfd4fd4)"><path stroke-linecap="butt" transform="matrix(0.75, 0, 0, 0.75, 62.433739, 17.879263)" fill="none" stroke-linejoin="miter" d="M 6.734182 1.733899 L 10.48939 8.312025 C 10.697724 8.6714 10.692515 9.1089 10.484182 9.468275 C 10.281057 9.82765 9.89564 10.0464 9.484182 10.0464 L 1.999807 10.0464 C 1.58314 10.0464 1.202932 9.82765 0.994598 9.468275 C 0.786265 9.1089 0.786265 8.6714 0.98939 8.312025 L 4.749807 1.733899 C 4.952932 1.379733 5.33314 1.160983 5.73939 1.160983 C 6.150849 1.160983 6.531057 1.379733 6.734182 1.733899 Z M 6.734182 1.733899 " stroke="#000000" stroke-width="1" stroke-opacity="1" stroke-miterlimit="4"/></g></g><g clip-path="url(#0921a1e1db)"><g clip-path="url(#39a01ffa4a)"><path fill="#c79a99" d="M 76.105469 25.777344 L 67.476562 25.777344 L 67.476562 18.242188 L 76.105469 18.242188 Z M 76.105469 25.777344 " fill-opacity="1" fill-rule="nonzero"/></g></g><g clip-path="url(#82b1f1c45d)"><g clip-path="url(#513a94b890)"><path stroke-linecap="butt" transform="matrix(-0.75, 0, 0, -0.75, 76.102892, 25.779262)" fill="none" stroke-linejoin="miter" d="M 6.73094 1.736933 L 10.491357 8.30985 C 10.694482 8.669225 10.694482 9.111933 10.486149 9.471308 C 10.277816 9.825475 9.897607 10.049433 9.48094 10.049433 L 2.001773 10.049433 C 1.585107 10.049433 1.204898 9.825475 0.996565 9.471308 C 0.788232 9.111933 0.788232 8.669225 0.991357 8.30985 L 4.751774 1.736933 C 4.954899 1.377558 5.329899 1.158808 5.741357 1.158808 C 6.152815 1.158808 6.527815 1.377558 6.73094 1.736933 Z M 6.73094 1.736933 " stroke="#000000" stroke-width="1" stroke-opacity="1" stroke-miterlimit="4"/></g></g><g clip-path="url(#7af8d9003c)"><g clip-path="url(#beebcc3bfe)"><path fill="#c79a99" d="M 72.960938 17.796875 L 81.589844 17.796875 L 81.589844 25.335938 L 72.960938 25.335938 Z M 72.960938 17.796875 " fill-opacity="1" fill-rule="nonzero"/></g></g><g clip-path="url(#1c393706bb)"><g clip-path="url(#0e18c34656)"><path stroke-linecap="butt" transform="matrix(0.75, 0, 0, 0.75, 72.963724, 17.797717)" fill="none" stroke-linejoin="miter" d="M 6.73066 1.733252 L 10.491077 8.311378 C 10.694202 8.670753 10.694202 9.113461 10.485869 9.467628 C 10.277535 9.827003 9.897327 10.045753 9.48066 10.045753 L 2.001493 10.045753 C 1.584827 10.045753 1.204618 9.827003 0.996285 9.467628 C 0.787952 9.113461 0.787952 8.670753 0.991077 8.311378 L 4.751493 1.733252 C 4.954618 1.379086 5.329618 1.160336 5.741077 1.160336 C 6.152535 1.160336 6.527535 1.379086 6.73066 1.733252 Z M 6.73066 1.733252 " stroke="#000000" stroke-width="1" stroke-opacity="1" stroke-miterlimit="4"/></g></g><g clip-path="url(#d855ee5c14)"><g clip-path="url(#3900a7992d)"><path fill="#c79a99" d="M 55.8125 50.691406 L 64.441406 50.691406 L 64.441406 58.230469 L 55.8125 58.230469 Z M 55.8125 50.691406 " fill-opacity="1" fill-rule="nonzero"/></g></g><g clip-path="url(#5532e4426a)"><g clip-path="url(#faae5c3ce0)"><path stroke-linecap="butt" transform="matrix(0.75, 0, 0, 0.75, 55.814801, 50.691638)" fill="none" stroke-linejoin="miter" d="M 6.731308 1.734066 L 10.491725 8.312192 C 10.69485 8.671567 10.69485 9.109067 10.486516 9.468442 C 10.278183 9.827817 9.897975 10.046567 9.481308 10.046567 L 1.996932 10.046567 C 1.585474 10.046567 1.205266 9.827817 0.996932 9.468442 C 0.788599 9.109067 0.788599 8.671567 0.991724 8.312192 L 4.746933 1.734066 C 4.950058 1.3799 5.330266 1.16115 5.741724 1.16115 C 6.153183 1.16115 6.528183 1.3799 6.731308 1.734066 Z M 6.731308 1.734066 " stroke="#000000" stroke-width="1" stroke-opacity="1" stroke-miterlimit="4"/></g></g><g clip-path="url(#f4df31b20f)"><g clip-path="url(#73a8d3ecb0)"><path fill="#c79a99" d="M 69.484375 58.589844 L 60.855469 58.589844 L 60.855469 51.054688 L 69.484375 51.054688 Z M 69.484375 58.589844 " fill-opacity="1" fill-rule="nonzero"/></g></g><g clip-path="url(#94612bcd2a)"><g clip-path="url(#9025cc1c0a)"><path stroke-linecap="butt" transform="matrix(-0.75, 0, 0, -0.75, 69.483952, 58.591636)" fill="none" stroke-linejoin="miter" d="M 6.733811 1.736764 L 10.48902 8.309681 C 10.697353 8.669056 10.692145 9.111765 10.483812 9.47114 C 10.280687 9.825306 9.89527 10.049265 9.483812 10.049265 L 1.999436 10.049265 C 1.587978 10.049265 1.202561 9.825306 0.994228 9.47114 C 0.785894 9.111765 0.785894 8.669056 0.994228 8.309681 L 4.749436 1.736764 C 4.952561 1.377389 5.33277 1.158639 5.73902 1.158639 C 6.150478 1.158639 6.530686 1.377389 6.733811 1.736764 Z M 6.733811 1.736764 " stroke="#000000" stroke-width="1" stroke-opacity="1" stroke-miterlimit="4"/></g></g><g clip-path="url(#2d12f5ed4f)"><g clip-path="url(#e703ddd88d)"><path fill="#c79a99" d="M 66.34375 50.609375 L 74.972656 50.609375 L 74.972656 58.148438 L 66.34375 58.148438 Z M 66.34375 50.609375 " fill-opacity="1" fill-rule="nonzero"/></g></g><g clip-path="url(#47b3e23ac0)"><g clip-path="url(#ef7d226005)"><path stroke-linecap="butt" transform="matrix(0.75, 0, 0, 0.75, 66.344776, 50.610088)" fill="none" stroke-linejoin="miter" d="M 6.733007 1.733424 L 10.488216 8.31155 C 10.696549 8.670925 10.696549 9.113633 10.488216 9.4678 C 10.279882 9.827175 9.894466 10.045925 9.483007 10.045925 L 1.998632 10.045925 C 1.587173 10.045925 1.201757 9.827175 0.993423 9.4678 C 0.790298 9.113633 0.78509 8.670925 0.993423 8.31155 L 4.748632 1.733424 C 4.951757 1.379258 5.331965 1.160508 5.743424 1.160508 C 6.149674 1.160508 6.529882 1.379258 6.733007 1.733424 Z M 6.733007 1.733424 " stroke="#000000" stroke-width="1" stroke-opacity="1" stroke-miterlimit="4"/></g></g><g clip-path="url(#1c2702070c)"><g clip-path="url(#c205e7ba1e)"><path fill="#c79a99" d="M 79.960938 58.589844 L 71.332031 58.589844 L 71.332031 51.054688 L 79.960938 51.054688 Z M 79.960938 58.589844 " fill-opacity="1" fill-rule="nonzero"/></g></g><g clip-path="url(#b3943ba741)"><g clip-path="url(#9d062dcdb1)"><path stroke-linecap="butt" transform="matrix(-0.75, 0, 0, -0.75, 79.960441, 58.591636)" fill="none" stroke-linejoin="miter" d="M 6.733713 1.736764 L 10.488922 8.309681 C 10.697255 8.669056 10.692047 9.111765 10.488922 9.47114 C 10.280589 9.825306 9.895172 10.049265 9.483714 10.049265 L 1.999338 10.049265 C 1.58788 10.049265 1.202463 9.825306 0.99413 9.47114 C 0.785796 9.111765 0.785796 8.669056 0.99413 8.309681 L 4.749338 1.736764 C 4.952463 1.377389 5.332672 1.158639 5.738922 1.158639 C 6.15038 1.158639 6.530588 1.377389 6.733713 1.736764 Z M 6.733713 1.736764 " stroke="#000000" stroke-width="1" stroke-opacity="1" stroke-miterlimit="4"/></g></g><g clip-path="url(#5b39a8650e)"><g clip-path="url(#4b1c6502ff)"><path fill="#c79a99" d="M 8.421875 34.402344 L 15.988281 34.402344 L 15.988281 41.96875 L 8.421875 41.96875 Z M 8.421875 34.402344 " fill-opacity="1" fill-rule="nonzero"/></g></g><g clip-path="url(#dba9a1815f)"><g clip-path="url(#f1dc32544d)"><path stroke-linecap="butt" transform="matrix(0.75, 0, 0, 0.75, 8.422013, 34.402672)" fill="none" stroke-linejoin="miter" d="M 5.041483 -0.000438019 C 2.255024 -0.000438019 -0.000184127 2.25477 -0.000184127 5.041229 C -0.000184127 7.822479 2.255024 10.077688 5.041483 10.077688 C 7.822733 10.077688 10.077941 7.822479 10.077941 5.041229 C 10.077941 2.25477 7.822733 -0.000438019 5.041483 -0.000438019 Z M 5.041483 -0.000438019 " stroke="#000000" stroke-width="1" stroke-opacity="1" stroke-miterlimit="4"/></g></g><g clip-path="url(#67f81fda1e)"><g clip-path="url(#0a833e8e87)"><path fill="#c79a99" d="M 15.988281 34.402344 L 23.554688 34.402344 L 23.554688 41.96875 L 15.988281 41.96875 Z M 15.988281 34.402344 " fill-opacity="1" fill-rule="nonzero"/></g></g><g clip-path="url(#c9a3735bf6)"><g clip-path="url(#1ed5985cc2)"><path stroke-linecap="butt" transform="matrix(0.75, 0, 0, 0.75, 15.98876, 34.402672)" fill="none" stroke-linejoin="miter" d="M 5.041029 -0.000438019 C 2.25457 -0.000438019 -0.000638408 2.25477 -0.000638408 5.041229 C -0.000638408 7.822479 2.25457 10.077688 5.041029 10.077688 C 7.822279 10.077688 10.077487 7.822479 10.077487 5.041229 C 10.077487 2.25477 7.822279 -0.000438019 5.041029 -0.000438019 Z M 5.041029 -0.000438019 " stroke="#000000" stroke-width="1" stroke-opacity="1" stroke-miterlimit="4"/></g></g><g clip-path="url(#10d56173eb)"><g clip-path="url(#a3466bdc32)"><path fill="#c79a99" d="M 23.554688 34.539062 L 31.121094 34.539062 L 31.121094 42.105469 L 23.554688 42.105469 Z M 23.554688 34.539062 " fill-opacity="1" fill-rule="nonzero"/></g></g><g clip-path="url(#f59c55edf4)"><g clip-path="url(#efb395a5db)"><path stroke-linecap="butt" transform="matrix(0.75, 0, 0, 0.75, 23.555507, 34.537226)" fill="none" stroke-linejoin="miter" d="M 5.040574 0.00244918 C 2.254116 0.00244918 -0.00109269 2.257658 -0.00109269 5.038908 C -0.00109269 7.820158 2.254116 10.080575 5.040574 10.080575 C 7.821824 10.080575 10.077033 7.820158 10.077033 5.038908 C 10.077033 2.257658 7.821824 0.00244918 5.040574 0.00244918 Z M 5.040574 0.00244918 " stroke="#000000" stroke-width="1" stroke-opacity="1" stroke-miterlimit="4"/></g></g><g clip-path="url(#60c5fedb16)"><g clip-path="url(#507ac04328)"><path fill="#c79a99" d="M 31.121094 34.539062 L 38.6875 34.539062 L 38.6875 42.105469 L 31.121094 42.105469 Z M 31.121094 34.539062 " fill-opacity="1" fill-rule="nonzero"/></g></g><g clip-path="url(#f8c906f9e4)"><g clip-path="url(#d63eab59f6)"><path stroke-linecap="butt" transform="matrix(0.75, 0, 0, 0.75, 31.122256, 34.537226)" fill="none" stroke-linejoin="miter" d="M 5.040117 0.00244918 C 2.253659 0.00244918 -0.00154953 2.257658 -0.00154953 5.038908 C -0.00154953 7.820158 2.253659 10.080575 5.040117 10.080575 C 7.821368 10.080575 10.076576 7.820158 10.076576 5.038908 C 10.076576 2.257658 7.821368 0.00244918 5.040117 0.00244918 Z M 5.040117 0.00244918 " stroke="#000000" stroke-width="1" stroke-opacity="1" stroke-miterlimit="4"/></g></g><g clip-path="url(#448463f63b)"><g clip-path="url(#049751faab)"><path fill="#c79a99" d="M 8.421875 67.796875 L 15.988281 67.796875 L 15.988281 75.363281 L 8.421875 75.363281 Z M 8.421875 67.796875 " fill-opacity="1" fill-rule="nonzero"/></g></g><g clip-path="url(#57b090751d)"><g clip-path="url(#a10ebf218a)"><path stroke-linecap="butt" transform="matrix(0.75, 0, 0, 0.75, 8.422013, 67.795986)" fill="none" stroke-linejoin="miter" d="M 5.041483 0.00118584 C 2.255024 0.00118584 -0.000184127 2.256394 -0.000184127 5.037644 C -0.000184127 7.824103 2.255024 10.079311 5.041483 10.079311 C 7.822733 10.079311 10.077941 7.824103 10.077941 5.037644 C 10.077941 2.256394 7.822733 0.00118584 5.041483 0.00118584 Z M 5.041483 0.00118584 " stroke="#000000" stroke-width="1" stroke-opacity="1" stroke-miterlimit="4"/></g></g><g clip-path="url(#97713bbaa1)"><g clip-path="url(#2f386f4bc2)"><path fill="#c79a99" d="M 15.988281 67.796875 L 23.554688 67.796875 L 23.554688 75.363281 L 15.988281 75.363281 Z M 15.988281 67.796875 " fill-opacity="1" fill-rule="nonzero"/></g></g><g clip-path="url(#01510f5661)"><g clip-path="url(#3da5e792b3)"><path stroke-linecap="butt" transform="matrix(0.75, 0, 0, 0.75, 15.98876, 67.795986)" fill="none" stroke-linejoin="miter" d="M 5.041029 0.00118584 C 2.25457 0.00118584 -0.000638408 2.256394 -0.000638408 5.037644 C -0.000638408 7.824103 2.25457 10.079311 5.041029 10.079311 C 7.822279 10.079311 10.077487 7.824103 10.077487 5.037644 C 10.077487 2.256394 7.822279 0.00118584 5.041029 0.00118584 Z M 5.041029 0.00118584 " stroke="#000000" stroke-width="1" stroke-opacity="1" stroke-miterlimit="4"/></g></g><g fill="#f1ebdf" fill-opacity="1"><g transform="translate(24.818246, 67.298898)"><g><path d="M 16.171875 -20.796875 C 16.171875 -18.554688 16.90625 -16.816406 18.375 -15.578125 C 19.851562 -14.347656 21.421875 -13.734375 23.078125 -13.734375 C 24.742188 -13.734375 26.296875 -14.21875 27.734375 -15.1875 C 29.179688 -16.164062 30.351562 -16.65625 31.25 -16.65625 C 32.832031 -16.65625 34.753906 -15.257812 37.015625 -12.46875 C 38.222656 -10.945312 38.828125 -9.578125 38.828125 -8.359375 C 38.828125 -6.359375 37.378906 -4.492188 34.484375 -2.765625 C 31.484375 -0.660156 27.800781 0.390625 23.4375 0.390625 C 18.539062 0.390625 13.832031 -1.367188 9.3125 -4.890625 C 7.15625 -6.578125 5.390625 -8.828125 4.015625 -11.640625 C 2.648438 -14.453125 1.96875 -17.554688 1.96875 -20.953125 C 1.96875 -24.347656 2.648438 -27.425781 4.015625 -30.1875 C 5.390625 -32.945312 7.15625 -35.171875 9.3125 -36.859375 C 13.675781 -40.328125 18.332031 -42.0625 23.28125 -42.0625 C 25.28125 -42.0625 27.226562 -41.785156 29.125 -41.234375 C 31.019531 -40.679688 32.414062 -40.144531 33.3125 -39.625 L 34.5625 -38.828125 C 35.507812 -38.191406 36.25 -37.691406 36.78125 -37.328125 C 38.144531 -36.273438 38.828125 -35.078125 38.828125 -33.734375 C 38.828125 -32.390625 38.273438 -30.878906 37.171875 -29.203125 C 35.273438 -26.304688 33.457031 -24.859375 31.71875 -24.859375 C 30.726562 -24.859375 29.3125 -25.4375 27.46875 -26.59375 C 26.519531 -27.488281 25.160156 -27.9375 23.390625 -27.9375 C 21.628906 -27.9375 19.984375 -27.304688 18.453125 -26.046875 C 16.929688 -24.785156 16.171875 -23.035156 16.171875 -20.796875 Z M 16.171875 -20.796875 "/></g></g></g></svg>