<svg xmlns="http://www.w3.org/2000/svg" xmlns:xlink="http://www.w3.org/1999/xlink" width="1587" zoomAndPan="magnify" viewBox="0 0 1190.25 1190.249948" height="1587" preserveAspectRatio="xMidYMid meet" version="1.0"><defs><g/><clipPath id="f957959ffd"><path d="M 0 0 L 1189.5 0 L 1189.5 1189.5 L 0 1189.5 Z M 0 0 " clip-rule="nonzero"/></clipPath><clipPath id="924c820c26"><path d="M 0 0 L 1189.199219 0 L 1189.199219 1189.199219 L 0 1189.199219 Z M 0 0 " clip-rule="nonzero"/></clipPath><clipPath id="a9842b7da1"><path d="M 79.902344 99.425781 L 1109.492188 99.425781 L 1109.492188 1090.050781 L 79.902344 1090.050781 Z M 79.902344 99.425781 " clip-rule="nonzero"/></clipPath><clipPath id="460924dea6"><path d="M 594.75 99.425781 C 310.40625 99.425781 79.902344 321.191406 79.902344 594.75 C 79.902344 868.308594 310.40625 1090.074219 594.75 1090.074219 C 879.089844 1090.074219 1109.597656 868.308594 1109.597656 594.75 C 1109.597656 321.191406 879.089844 99.425781 594.75 99.425781 Z M 594.75 99.425781 " clip-rule="nonzero"/></clipPath><clipPath id="482408269c"><path d="M 690.871094 272.144531 L 793.859375 272.144531 L 793.859375 375.128906 L 690.871094 375.128906 Z M 690.871094 272.144531 " clip-rule="nonzero"/></clipPath><clipPath id="1bc7e9b57e"><path d="M 742.363281 272.144531 C 713.925781 272.144531 690.871094 295.199219 690.871094 323.636719 C 690.871094 352.074219 713.925781 375.128906 742.363281 375.128906 C 770.804688 375.128906 793.859375 352.074219 793.859375 323.636719 C 793.859375 295.199219 770.804688 272.144531 742.363281 272.144531 Z M 742.363281 272.144531 " clip-rule="nonzero"/></clipPath><clipPath id="0dc4bd88ae"><path d="M 832.265625 272.144531 L 935.253906 272.144531 L 935.253906 375.128906 L 832.265625 375.128906 Z M 832.265625 272.144531 " clip-rule="nonzero"/></clipPath><clipPath id="083e0d7b50"><path d="M 883.761719 272.144531 C 855.320312 272.144531 832.265625 295.199219 832.265625 323.636719 C 832.265625 352.074219 855.320312 375.128906 883.761719 375.128906 C 912.199219 375.128906 935.253906 352.074219 935.253906 323.636719 C 935.253906 295.199219 912.199219 272.144531 883.761719 272.144531 Z M 883.761719 272.144531 " clip-rule="nonzero"/></clipPath></defs><g clip-path="url(#f957959ffd)"><path fill="#ffffff" d="M 0 0 L 1189.5 0 L 1189.5 1189.5 L 0 1189.5 Z M 0 0 " fill-opacity="1" fill-rule="nonzero"/></g><g clip-path="url(#924c820c26)"><path fill="#f1ebdf" d="M 0 0 L 1189.199219 0 L 1189.199219 1189.199219 L 0 1189.199219 Z M 0 0 " fill-opacity="1" fill-rule="nonzero"/></g><g clip-path="url(#a9842b7da1)"><g clip-path="url(#460924dea6)"><path stroke-linecap="butt" transform="matrix(0.749338, 0, 0, 0.749338, 79.900815, 99.426213)" fill="none" stroke-linejoin="miter" d="M 687.072019 -0.000576296 C 307.612092 -0.000576296 0.00204078 295.94814 0.00204078 661.015155 C 0.00204078 1026.08217 307.612092 1322.030886 687.072019 1322.030886 C 1066.526732 1322.030886 1374.141996 1026.08217 1374.141996 661.015155 C 1374.141996 295.94814 1066.526732 -0.000576296 687.072019 -0.000576296 Z M 687.072019 -0.000576296 " stroke="#000000" stroke-width="8" stroke-opacity="1" stroke-miterlimit="4"/></g></g><g fill="#000000" fill-opacity="1"><g transform="translate(118.950063, 830.22807)"><g><path d="M 171.859375 -220.90625 C 171.859375 -197.15625 179.679688 -178.710938 195.328125 -165.578125 C 210.984375 -152.441406 227.613281 -145.875 245.21875 -145.875 C 262.832031 -145.875 279.320312 -151.039062 294.6875 -161.375 C 310.0625 -171.71875 322.5 -176.890625 332 -176.890625 C 348.757812 -176.890625 369.160156 -162.082031 393.203125 -132.46875 C 406.054688 -116.257812 412.484375 -101.726562 412.484375 -88.875 C 412.484375 -67.632812 397.113281 -47.789062 366.375 -29.34375 C 334.507812 -6.988281 295.382812 4.1875 249 4.1875 C 197.019531 4.1875 146.992188 -14.535156 98.921875 -51.984375 C 76.015625 -69.867188 57.289062 -93.757812 42.75 -123.65625 C 28.21875 -153.5625 20.953125 -186.535156 20.953125 -222.578125 C 20.953125 -258.628906 28.21875 -291.328125 42.75 -320.671875 C 57.289062 -350.015625 76.015625 -373.628906 98.921875 -391.515625 C 145.316406 -428.410156 194.785156 -446.859375 247.328125 -446.859375 C 268.554688 -446.859375 289.234375 -443.921875 309.359375 -438.046875 C 329.484375 -432.179688 344.296875 -426.453125 353.796875 -420.859375 L 367.203125 -412.484375 C 377.265625 -405.773438 385.09375 -400.460938 390.6875 -396.546875 C 405.21875 -385.367188 412.484375 -372.65625 412.484375 -358.40625 C 412.484375 -344.15625 406.613281 -328.085938 394.875 -310.203125 C 374.75 -279.460938 355.46875 -264.09375 337.03125 -264.09375 C 326.40625 -264.09375 311.3125 -270.238281 291.75 -282.53125 C 281.6875 -292.03125 267.296875 -296.78125 248.578125 -296.78125 C 229.859375 -296.78125 212.390625 -290.070312 196.171875 -276.65625 C 179.960938 -263.25 171.859375 -244.664062 171.859375 -220.90625 Z M 171.859375 -220.90625 "/></g></g></g><g fill="#000000" fill-opacity="1"><g transform="translate(552.377648, 830.22807)"><g><path d="M 229.71875 -1.671875 C 173.257812 -1.671875 126.445312 -23.050781 89.28125 -65.8125 C 52.113281 -108.570312 33.53125 -160.691406 33.53125 -222.171875 L 33.53125 -368.890625 C 33.53125 -382.296875 33.945312 -392.070312 34.78125 -398.21875 C 35.625 -404.375 38.003906 -411.644531 41.921875 -420.03125 C 49.742188 -435.113281 71.539062 -442.65625 107.3125 -442.65625 C 146.4375 -442.65625 169.351562 -432.035156 176.0625 -410.796875 C 179.414062 -401.859375 181.09375 -387.609375 181.09375 -368.046875 L 181.09375 -221.328125 C 181.09375 -198.410156 187.660156 -180.523438 200.796875 -167.671875 C 213.929688 -154.816406 231.535156 -148.390625 253.609375 -148.390625 C 275.679688 -148.390625 293.5625 -155.097656 307.25 -168.515625 C 320.945312 -181.929688 327.796875 -199.535156 327.796875 -221.328125 L 327.796875 -369.71875 C 327.796875 -382.570312 328.210938 -392.210938 329.046875 -398.640625 C 329.890625 -405.066406 332.550781 -412.472656 337.03125 -420.859375 C 344.289062 -435.390625 365.804688 -442.65625 401.578125 -442.65625 C 436.796875 -442.65625 458.316406 -435.113281 466.140625 -420.03125 C 470.046875 -411.644531 472.414062 -404.238281 473.25 -397.8125 C 474.09375 -391.382812 474.515625 -381.742188 474.515625 -368.890625 L 474.515625 -72.09375 C 474.515625 -59.800781 474.09375 -50.441406 473.25 -44.015625 C 472.414062 -37.585938 469.765625 -30.460938 465.296875 -22.640625 C 456.910156 -8.109375 435.394531 -0.84375 400.75 -0.84375 C 366.65625 -0.84375 345.691406 -7.546875 337.859375 -20.953125 C 332.273438 -30.460938 329.484375 -41.921875 329.484375 -55.328125 C 327.242188 -51.421875 322.210938 -45.832031 314.390625 -38.5625 C 306.566406 -31.300781 299.019531 -25.15625 291.75 -20.125 C 272.75 -7.820312 252.070312 -1.671875 229.71875 -1.671875 Z M 229.71875 -1.671875 "/></g></g></g><g clip-path="url(#482408269c)"><g clip-path="url(#1bc7e9b57e)"><path fill="#000000" d="M 690.871094 272.144531 L 793.859375 272.144531 L 793.859375 375.128906 L 690.871094 375.128906 Z M 690.871094 272.144531 " fill-opacity="1" fill-rule="nonzero"/></g></g><g clip-path="url(#0dc4bd88ae)"><g clip-path="url(#083e0d7b50)"><path fill="#000000" d="M 832.265625 272.144531 L 935.253906 272.144531 L 935.253906 375.128906 L 832.265625 375.128906 Z M 832.265625 272.144531 " fill-opacity="1" fill-rule="nonzero"/></g></g></svg>