<svg xmlns="http://www.w3.org/2000/svg" xmlns:xlink="http://www.w3.org/1999/xlink" width="1587" zoomAndPan="magnify" viewBox="0 0 1190.25 1190.249948" height="1587" preserveAspectRatio="xMidYMid meet" version="1.0"><defs><g/><clipPath id="d5681341d2"><path d="M 529.207031 519.0625 L 684.960938 519.0625 L 684.960938 791 L 529.207031 791 Z M 529.207031 519.0625 " clip-rule="nonzero"/></clipPath><clipPath id="3b04704062"><path d="M 544.191406 519.0625 L 669.976562 519.0625 C 678.25 519.0625 684.960938 525.769531 684.960938 534.046875 L 684.960938 775.554688 C 684.960938 783.832031 678.25 790.539062 669.976562 790.539062 L 544.191406 790.539062 C 535.914062 790.539062 529.207031 783.832031 529.207031 775.554688 L 529.207031 534.046875 C 529.207031 525.769531 535.914062 519.0625 544.191406 519.0625 Z M 544.191406 519.0625 " clip-rule="nonzero"/></clipPath><clipPath id="722b7afccc"><path d="M 529.207031 519.070312 L 684.445312 519.070312 L 684.445312 791 L 529.207031 791 Z M 529.207031 519.070312 " clip-rule="nonzero"/></clipPath><clipPath id="c8bad0c2f8"><path d="M 544.191406 519.070312 L 669.960938 519.070312 C 678.234375 519.070312 684.945312 525.777344 684.945312 534.054688 L 684.945312 775.535156 C 684.945312 783.808594 678.234375 790.519531 669.960938 790.519531 L 544.191406 790.519531 C 535.914062 790.519531 529.207031 783.808594 529.207031 775.535156 L 529.207031 534.054688 C 529.207031 525.777344 535.914062 519.070312 544.191406 519.070312 Z M 544.191406 519.070312 " clip-rule="nonzero"/></clipPath><clipPath id="53088453a6"><path d="M 528 381 L 678 381 L 678 493.734375 L 528 493.734375 Z M 528 381 " clip-rule="nonzero"/></clipPath><clipPath id="8399094099"><path d="M 611.492188 385.558594 L 676.542969 481.335938 C 678.191406 483.769531 678.367188 486.914062 676.988281 489.511719 C 675.613281 492.109375 672.914062 493.734375 669.976562 493.734375 L 536.171875 493.734375 C 533.230469 493.734375 530.53125 492.109375 529.15625 489.511719 C 527.78125 486.914062 527.953125 483.769531 529.605469 481.335938 L 594.652344 385.558594 C 596.546875 382.765625 599.699219 381.097656 603.074219 381.097656 C 606.445312 381.097656 609.597656 382.765625 611.492188 385.558594 Z M 611.492188 385.558594 " clip-rule="nonzero"/></clipPath><clipPath id="4880e44643"><path d="M 528 381 L 678 381 L 678 493.71875 L 528 493.71875 Z M 528 381 " clip-rule="nonzero"/></clipPath><clipPath id="d40ce6e406"><path d="M 611.488281 385.554688 L 676.53125 481.324219 C 678.179688 483.753906 678.355469 486.898438 676.976562 489.496094 C 675.601562 492.09375 672.902344 493.71875 669.964844 493.71875 L 536.175781 493.71875 C 533.238281 493.71875 530.539062 492.09375 529.164062 489.496094 C 527.789062 486.898438 527.960938 483.753906 529.609375 481.324219 L 594.652344 385.554688 C 596.546875 382.765625 599.699219 381.097656 603.070312 381.097656 C 606.441406 381.097656 609.59375 382.765625 611.488281 385.554688 Z M 611.488281 385.554688 " clip-rule="nonzero"/></clipPath></defs><g fill="#8ea898" fill-opacity="0.4"><g transform="translate(66.108072, 1127.157562)"><g><path d="M 570.0625 14.578125 C 475.78125 14.578125 388.785156 -8.75 309.078125 -55.40625 C 229.378906 -102.0625 166.445312 -165.722656 120.28125 -246.390625 C 74.113281 -327.066406 51.03125 -415.03125 51.03125 -510.28125 C 51.03125 -605.53125 74.113281 -693.492188 120.28125 -774.171875 C 166.445312 -854.847656 229.378906 -918.507812 309.078125 -965.15625 C 388.785156 -1011.8125 475.78125 -1035.140625 570.0625 -1035.140625 C 685.726562 -1035.140625 786.082031 -1002.578125 871.125 -937.453125 C 956.175781 -872.335938 1017.164062 -780.976562 1054.09375 -663.375 L 930.171875 -663.375 C 901.984375 -745.019531 855.328125 -809.164062 790.203125 -855.8125 C 725.085938 -902.46875 651.707031 -925.796875 570.0625 -925.796875 C 498.132812 -925.796875 431.550781 -907.328125 370.3125 -870.390625 C 309.082031 -833.460938 260.726562 -783.410156 225.25 -720.234375 C 189.769531 -657.054688 172.03125 -587.070312 172.03125 -510.28125 C 172.03125 -433.5 189.769531 -363.519531 225.25 -300.34375 C 260.726562 -237.164062 309.082031 -187.109375 370.3125 -150.171875 C 431.550781 -113.234375 498.132812 -94.765625 570.0625 -94.765625 C 654.625 -94.765625 729.707031 -118.09375 795.3125 -164.75 C 860.914062 -211.40625 907.8125 -275.554688 936 -357.203125 L 1059.9375 -357.203125 C 1023 -239.585938 961.519531 -148.21875 875.5 -83.09375 C 789.476562 -17.976562 687.664062 14.578125 570.0625 14.578125 Z M 570.0625 14.578125 "/></g></g></g><g fill="#333333" fill-opacity="1"><g transform="translate(42.912194, 1103.961675)"><g><path d="M 570.0625 14.578125 C 475.78125 14.578125 388.785156 -8.75 309.078125 -55.40625 C 229.378906 -102.0625 166.445312 -165.722656 120.28125 -246.390625 C 74.113281 -327.066406 51.03125 -415.03125 51.03125 -510.28125 C 51.03125 -605.53125 74.113281 -693.492188 120.28125 -774.171875 C 166.445312 -854.847656 229.378906 -918.507812 309.078125 -965.15625 C 388.785156 -1011.8125 475.78125 -1035.140625 570.0625 -1035.140625 C 685.726562 -1035.140625 786.082031 -1002.578125 871.125 -937.453125 C 956.175781 -872.335938 1017.164062 -780.976562 1054.09375 -663.375 L 930.171875 -663.375 C 901.984375 -745.019531 855.328125 -809.164062 790.203125 -855.8125 C 725.085938 -902.46875 651.707031 -925.796875 570.0625 -925.796875 C 498.132812 -925.796875 431.550781 -907.328125 370.3125 -870.390625 C 309.082031 -833.460938 260.726562 -783.410156 225.25 -720.234375 C 189.769531 -657.054688 172.03125 -587.070312 172.03125 -510.28125 C 172.03125 -433.5 189.769531 -363.519531 225.25 -300.34375 C 260.726562 -237.164062 309.082031 -187.109375 370.3125 -150.171875 C 431.550781 -113.234375 498.132812 -94.765625 570.0625 -94.765625 C 654.625 -94.765625 729.707031 -118.09375 795.3125 -164.75 C 860.914062 -211.40625 907.8125 -275.554688 936 -357.203125 L 1059.9375 -357.203125 C 1023 -239.585938 961.519531 -148.21875 875.5 -83.09375 C 789.476562 -17.976562 687.664062 14.578125 570.0625 14.578125 Z M 570.0625 14.578125 "/></g></g></g><g clip-path="url(#d5681341d2)"><g clip-path="url(#3b04704062)"><path fill="#e4dac5" d="M 529.207031 519.0625 L 684.960938 519.0625 L 684.960938 790.417969 L 529.207031 790.417969 Z M 529.207031 519.0625 " fill-opacity="1" fill-rule="nonzero"/></g></g><g clip-path="url(#722b7afccc)"><g clip-path="url(#c8bad0c2f8)"><path stroke-linecap="butt" transform="matrix(1.100998, 0, 0, 1.100998, 529.205302, 519.069244)" fill="none" stroke-linejoin="miter" d="M 13.611384 0.000970575 L 127.843697 0.000970575 C 135.358187 0.000970575 141.45351 6.092746 141.45351 13.610784 L 141.45351 232.939522 C 141.45351 240.454012 135.358187 246.549335 127.843697 246.549335 L 13.611384 246.549335 C 6.093346 246.549335 0.00157051 240.454012 0.00157051 232.939522 L 0.00157051 13.610784 C 0.00157051 6.092746 6.093346 0.000970575 13.611384 0.000970575 Z M 13.611384 0.000970575 " stroke="#333333" stroke-width="10.889584" stroke-opacity="1" stroke-miterlimit="4"/></g></g><g clip-path="url(#53088453a6)"><g clip-path="url(#8399094099)"><path fill="#8ea898" d="M 521.183594 373.160156 L 685.089844 373.160156 L 685.089844 493.734375 L 521.183594 493.734375 Z M 521.183594 373.160156 " fill-opacity="1" fill-rule="nonzero"/></g></g><g clip-path="url(#4880e44643)"><g clip-path="url(#d40ce6e406)"><path stroke-linecap="butt" transform="matrix(1.100998, 0, 0, 1.100998, 521.192048, 373.159285)" fill="none" stroke-linejoin="miter" d="M 82.013079 11.258334 L 141.089454 98.242628 C 142.586675 100.449432 142.746331 103.305506 141.493916 105.664871 C 140.245049 108.024236 137.793438 109.50017 135.125404 109.50017 L 13.609229 109.50017 C 10.941195 109.50017 8.489584 108.024236 7.240717 105.664871 C 5.99185 103.305506 6.147958 100.449432 7.645179 98.242628 L 66.721554 11.258334 C 68.442294 8.72512 71.305464 7.21016 74.367316 7.21016 C 77.429169 7.21016 80.292339 8.72512 82.013079 11.258334 Z M 82.013079 11.258334 " stroke="#333333" stroke-width="10.889584" stroke-opacity="1" stroke-miterlimit="4"/></g></g><path stroke-linecap="round" transform="matrix(-0.893361, -0.643508, 0.643508, -0.893361, 661.10888, 572.826782)" fill="none" stroke-linejoin="miter" d="M 3.625724 3.674508 C 13.899029 13.9788 25.004077 13.898241 36.940868 3.43283 " stroke="#f1ebdf" stroke-width="5" stroke-opacity="1" stroke-miterlimit="4"/><path stroke-linecap="round" transform="matrix(-0.613857, -0.913989, 0.913989, -0.613857, 644.677771, 473.618319)" fill="none" stroke-linejoin="miter" d="M 2.570428 2.506297 C 11.077235 2.522632 18.803767 2.523502 25.750022 2.508909 " stroke="#f1ebdf" stroke-width="5" stroke-opacity="1" stroke-miterlimit="4"/><path stroke-linecap="round" transform="matrix(-0.613857, -0.913989, 0.913989, -0.613857, 623.450572, 439.562565)" fill="none" stroke-linejoin="miter" d="M 2.569302 2.506237 C 11.079054 2.524549 18.802641 2.523442 25.750874 2.505903 " stroke="#f1ebdf" stroke-width="5" stroke-opacity="1" stroke-miterlimit="4"/><path stroke-linecap="round" transform="matrix(-0.837528, 0.714663, -0.714663, -0.837528, 587.007411, 547.024754)" fill="none" stroke-linejoin="miter" d="M 3.62678 3.674643 C 13.899893 13.979821 25.004271 13.898607 36.939913 3.431001 " stroke="#f1ebdf" stroke-width="5" stroke-opacity="1" stroke-miterlimit="4"/></svg>